<?xml version="1.0" encoding="UTF-8" standalone="no"?>
<!-- Created with Inkscape (http://www.inkscape.org/) -->

<svg
   xmlns:dc="http://purl.org/dc/elements/1.1/"
   xmlns:cc="http://creativecommons.org/ns#"
   xmlns:rdf="http://www.w3.org/1999/02/22-rdf-syntax-ns#"
   xmlns:svg="http://www.w3.org/2000/svg"
   xmlns="http://www.w3.org/2000/svg"
   xmlns:sodipodi="http://sodipodi.sourceforge.net/DTD/sodipodi-0.dtd"
   xmlns:inkscape="http://www.inkscape.org/namespaces/inkscape"
   width="24.470476mm"
   height="25.201391mm"
   viewBox="0 0 24.470476 25.201391"
   version="1.1"
   id="svg8"
   inkscape:version="0.92.4 (5da689c313, 2019-01-14)"
   sodipodi:docname="2.svg">
  <defs
     id="defs2">
    <clipPath
       clipPathUnits="userSpaceOnUse"
       id="clipPath4681">
      <rect
         style="opacity:1;fill:none;fill-opacity:1;fill-rule:nonzero;stroke:#202020;stroke-width:0.31705403;stroke-linecap:butt;stroke-linejoin:round;stroke-miterlimit:4;stroke-dasharray:none;stroke-opacity:1"
         id="rect4683"
         width="39.203953"
         height="71.946182"
         x="81.393761"
         y="204.01036"
         transform="matrix(0.74299455,0.66929747,-0.69301371,0.7209244,0,0)" />
    </clipPath>
    <clipPath
       clipPathUnits="userSpaceOnUse"
       id="clipPath6717">
      <rect
         style="opacity:1;fill:none;fill-opacity:1;fill-rule:nonzero;stroke:#202020;stroke-width:0.31705403;stroke-linecap:butt;stroke-linejoin:round;stroke-miterlimit:4;stroke-dasharray:none;stroke-opacity:1"
         id="rect6715"
         width="39.203953"
         height="71.946182"
         x="81.393761"
         y="204.01036"
         transform="matrix(0.74299455,0.66929747,-0.69301371,0.7209244,0,0)" />
    </clipPath>
    <clipPath
       clipPathUnits="userSpaceOnUse"
       id="clipPath4681-68">
      <rect
         style="opacity:1;fill:none;fill-opacity:1;fill-rule:nonzero;stroke:#202020;stroke-width:0.31705403;stroke-linecap:butt;stroke-linejoin:round;stroke-miterlimit:4;stroke-dasharray:none;stroke-opacity:1"
         id="rect4683-8"
         width="39.203953"
         height="71.946182"
         x="81.393761"
         y="204.01036"
         transform="matrix(0.74299455,0.66929747,-0.69301371,0.7209244,0,0)" />
    </clipPath>
    <clipPath
       clipPathUnits="userSpaceOnUse"
       id="clipPath12301">
      <rect
         style="opacity:1;fill:none;fill-opacity:1;fill-rule:nonzero;stroke:#202020;stroke-width:0.31705403;stroke-linecap:butt;stroke-linejoin:round;stroke-miterlimit:4;stroke-dasharray:none;stroke-opacity:1"
         id="rect12299"
         width="39.203953"
         height="71.946182"
         x="81.393761"
         y="204.01036"
         transform="matrix(0.74299455,0.66929747,-0.69301371,0.7209244,0,0)" />
    </clipPath>
  </defs>
  <sodipodi:namedview
     id="base"
     pagecolor="#ffffff"
     bordercolor="#666666"
     borderopacity="1.0"
     inkscape:pageopacity="0.0"
     inkscape:pageshadow="2"
     inkscape:zoom="5.6568542"
     inkscape:cx="84.374554"
     inkscape:cy="33.363572"
     inkscape:document-units="mm"
     inkscape:current-layer="layer1"
     showgrid="false"
     borderlayer="true"
     showborder="false"
     inkscape:window-width="1920"
     inkscape:window-height="976"
     inkscape:window-x="-8"
     inkscape:window-y="-8"
     inkscape:window-maximized="1" />
  <metadata
     id="metadata5">
    <rdf:RDF>
      <cc:Work
         rdf:about="">
        <dc:format>image/svg+xml</dc:format>
        <dc:type
           rdf:resource="http://purl.org/dc/dcmitype/StillImage" />
        <dc:title></dc:title>
      </cc:Work>
    </rdf:RDF>
  </metadata>
  <g
     inkscape:label="Layer 1"
     inkscape:groupmode="layer"
     id="layer1"
     transform="translate(41.71738,-136.23264)">
    <g
       id="g1455">
      <path
         style="fill:none;stroke:#000000;stroke-width:0;stroke-linecap:round;stroke-linejoin:round;stroke-miterlimit:10"
         inkscape:connector-curvature="0"
         class="st0"
         d="m -32.339262,137.24595 c 0.05399,-0.20517 0.107982,-0.47512 0.118781,-0.74508 0.0108,-0.32395 0.0108,-0.31315 -0.291553,-0.18357 -0.291553,0.12958 -0.464325,0.42113 -0.79907,0.47512 -0.0216,0 -0.0324,0.0324 -0.04319,0.0432 -0.194369,0.18357 -0.399536,0.34554 -0.647895,0.47512 -0.323947,0.17277 -0.561509,0.43193 -0.68029,0.80987 -0.107982,0.35634 -0.140377,0.69108 -0.07559,1.05823 0.04319,0.23756 0.04319,0.47512 -0.05399,0.70188 -0.05399,0.12958 -0.151175,0.20517 -0.237561,0.30235 -0.05399,0.0648 -0.04319,0.11878 0,0.17277 0.04319,0.054 0.08639,0.0648 0.151175,0.0216 0.485921,-0.31315 0.982641,-0.5939 1.392974,-1.00423 0.583106,-0.58311 0.982641,-1.2634 1.166211,-2.12726 z"
         id="path3136-0" />
      <path
         style="fill:none;stroke:#000000;stroke-width:0;stroke-linecap:round;stroke-linejoin:round;stroke-miterlimit:10"
         inkscape:connector-curvature="0"
         class="st0"
         d="m -32.252876,136.3065 c -0.172772,0.98264 -0.323948,1.93289 -1.025833,2.66717 0.161973,-0.41033 0.205166,-0.83146 0.226763,-1.2634 0.0108,-0.18357 0.0216,-0.37793 0.05399,-0.55071 0.07559,-0.39953 0.356342,-0.63709 0.745079,-0.85306 z"
         id="path3139-3" />
      <path
         style="fill:#d2aa5c;stroke-width:0.11641961"
         inkscape:connector-curvature="0"
         class="st2"
         d="m -32.339262,137.24595 c 0.05399,-0.20517 0.107982,-0.47512 0.118781,-0.74508 0.0108,-0.32395 0.0108,-0.31315 -0.291553,-0.18357 -0.291553,0.12958 -0.464325,0.42113 -0.79907,0.47512 -0.0216,0 -0.0324,0.0324 -0.04319,0.0432 -0.194369,0.18357 -0.399536,0.34554 -0.647895,0.47512 -0.323947,0.17277 -0.561509,0.43193 -0.68029,0.80987 -0.107982,0.35634 -0.140377,0.69108 -0.07559,1.05823 0.04319,0.23756 0.04319,0.47512 -0.05399,0.70188 -0.05399,0.12958 -0.151175,0.20517 -0.237561,0.30235 -0.05399,0.0648 -0.04319,0.11878 0,0.17277 0.04319,0.054 0.08639,0.0648 0.151175,0.0216 0.485921,-0.31315 0.982641,-0.5939 1.392974,-1.00423 0.583106,-0.58311 0.982641,-1.2634 1.166211,-2.12726 z m 0.08639,-0.93945 c -0.172772,0.98264 -0.323948,1.93289 -1.025833,2.66717 0.161973,-0.41033 0.205166,-0.83146 0.226763,-1.2634 0.0108,-0.18357 0.0216,-0.37793 0.05399,-0.55071 0.07559,-0.39953 0.356342,-0.63709 0.745079,-0.85306 z m -2.354018,2.01928 c 0.129579,-0.44273 0.345544,-0.82067 0.809869,-0.99344 -0.172772,0.25915 -0.205167,0.5615 -0.269957,0.85306 -0.06479,0.26995 -0.0216,0.56151 -0.107982,0.83146 -0.08639,0.30235 -0.269956,0.55072 -0.507518,0.80987 0.107983,-0.52911 -0.06479,-1.01504 0.07559,-1.50095 z m 0.334746,1.53335 c -0.226764,0.15117 -0.464325,0.26995 -0.691088,0.42113 0.04319,-0.12958 0.140377,-0.19437 0.237561,-0.26996 0.464325,-0.42113 0.734281,-0.90705 0.712684,-1.56574 -0.0216,-0.61551 0.205168,-1.14462 0.712685,-1.52256 0.07559,-0.054 0.161974,-0.0972 0.259158,-0.0972 -0.09718,0.42113 -0.07559,0.84226 -0.107982,1.26339 -0.08639,0.78827 -0.475124,1.36058 -1.123018,1.77092 z"
         id="path3148-20" />
      <g
         id="text1207"
         style="font-style:normal;font-variant:normal;font-weight:normal;font-stretch:normal;font-size:7.71485853px;line-height:1.25;font-family:'Great Vibes';-inkscape-font-specification:'Great Vibes, Normal';font-variant-ligatures:normal;font-variant-caps:normal;font-variant-numeric:normal;font-feature-settings:normal;text-align:start;letter-spacing:0.39960587px;word-spacing:0px;writing-mode:lr-tb;text-anchor:start;opacity:1;vector-effect:none;fill:#cfaa5c;fill-opacity:1;stroke:none;stroke-width:0.13699377;stroke-linecap:butt;stroke-linejoin:miter;stroke-miterlimit:4;stroke-dasharray:none;stroke-dashoffset:0;stroke-opacity:1"
         aria-label="Cvet">
        <path
           id="path1364"
           style="font-style:normal;font-variant:normal;font-weight:normal;font-stretch:normal;font-size:7.71485853px;font-family:'Great Vibes';-inkscape-font-specification:'Great Vibes, Normal';font-variant-ligatures:normal;font-variant-caps:normal;font-variant-numeric:normal;font-feature-settings:normal;text-align:start;letter-spacing:0.36163405px;writing-mode:lr-tb;text-anchor:start;fill:#cfaa5c;fill-opacity:1;stroke-width:0.13699377"
           d="m -30.558445,154.88884 c 0.07715,-0.1543 -0.03086,-0.2083 -0.09258,-0.0771 -0.324024,0.66348 -0.594044,1.16495 -1.265237,1.5584 -0.763771,0.45518 -1.758988,0.5709 -2.584478,0.32403 -2.005863,-0.61719 -0.740626,-3.74171 -0.462891,-4.10431 0.401173,0.83321 1.11094,1.19581 1.913285,1.31153 3.178522,0.46289 4.274031,-3.24796 1.265237,-3.58741 -1.218948,-0.13887 -2.376177,0.33945 -3.209382,1.41182 -0.07715,-0.4166 -0.146582,-0.97979 -0.06172,-1.46583 0.03857,-0.21601 -0.123438,-0.16972 -0.154298,-0.0386 -0.154297,0.5709 -0.09258,1.28838 0.03086,1.7667 -1.072365,1.3501 -1.558402,4.03487 0.378028,4.85265 1.118654,0.47832 2.214164,0.19287 3.00108,-0.34717 0.655763,-0.46289 0.910353,-0.92578 1.242092,-1.60469 z m -1.157229,-4.28175 c 2.252739,0.32403 1.566117,3.41769 -1.218947,3.10909 -0.84092,-0.0926 -1.527542,-0.48603 -1.874711,-1.37324 0.763771,-1.16495 1.944144,-1.90557 3.093658,-1.73585 z"
           inkscape:connector-curvature="0" />
        <path
           id="path1366"
           style="font-style:normal;font-variant:normal;font-weight:normal;font-stretch:normal;font-size:7.71485853px;font-family:'Great Vibes';-inkscape-font-specification:'Great Vibes, Normal';font-variant-ligatures:normal;font-variant-caps:normal;font-variant-numeric:normal;font-feature-settings:normal;text-align:start;letter-spacing:0.36163405px;writing-mode:lr-tb;text-anchor:start;fill:#cfaa5c;fill-opacity:1;stroke-width:0.13699377"
           d="m -28.260863,153.70847 c 0.146582,-0.33946 -0.439747,-0.33946 -0.655763,0.34717 -0.06943,0.2083 -0.04629,0.53232 0.06172,0.77148 -0.308595,0.76377 -0.725197,1.41182 -1.09551,1.24981 -0.200587,-0.0926 -0.0077,-0.66348 0.185156,-1.17266 0.100293,-0.25459 0.216016,-0.67891 0.223731,-0.9335 0.01543,-0.37803 -0.054,-0.33945 -0.277735,-0.31631 -0.06172,0.008 -0.378028,0.0617 -0.378028,0.0617 0.208301,0.054 0.131153,0.65576 -0.02314,0.95664 l -0.138868,0.26231 c -0.04629,0.10801 0.054,0.1543 0.138868,0.0231 -0.216016,0.59405 -0.408888,1.28839 0.054,1.38096 1.06465,0.21602 1.712698,-2.03672 1.89014,-2.59219 0,-0.0154 0.0077,-0.0309 0.01543,-0.0386 z"
           inkscape:connector-curvature="0" />
        <path
           id="path1368"
           style="font-style:normal;font-variant:normal;font-weight:normal;font-stretch:normal;font-size:7.71485853px;font-family:'Great Vibes';-inkscape-font-specification:'Great Vibes, Normal';font-variant-ligatures:normal;font-variant-caps:normal;font-variant-numeric:normal;font-feature-settings:normal;text-align:start;letter-spacing:0.36163405px;writing-mode:lr-tb;text-anchor:start;fill:#cfaa5c;fill-opacity:1;stroke-width:0.13699377"
           d="m -25.895536,154.85798 c 0.07715,-0.16201 -0.07715,-0.14658 -0.138867,-0.008 -0.177442,0.40888 -0.594044,1.31924 -1.272952,1.31924 -0.509181,0 -0.378028,-0.7792 -0.262305,-1.05694 0.208301,0 0.709767,-0.16201 0.948928,-0.33945 0.493751,-0.37803 0.717481,-0.90264 0.424317,-1.12637 -0.339454,-0.25459 -0.925783,0.0386 -1.319241,0.50146 -0.339454,0.40118 -0.601759,0.97979 -0.594044,1.44268 0.0077,0.48604 0.354883,0.74063 0.740626,0.74063 0.85635,0 1.188089,-0.85635 1.473538,-1.47354 z m -0.802345,-0.21602 c -0.277735,0.23145 -0.678908,0.33946 -0.817775,0.33946 0.06943,-0.13887 0.262305,-0.47832 0.462891,-0.7252 0.948928,-1.14951 0.987502,-0.14658 0.354884,0.38574 z"
           inkscape:connector-curvature="0" />
        <path
           id="path1370"
           style="font-style:normal;font-variant:normal;font-weight:normal;font-stretch:normal;font-size:7.71485853px;font-family:'Great Vibes';-inkscape-font-specification:'Great Vibes, Normal';font-variant-ligatures:normal;font-variant-caps:normal;font-variant-numeric:normal;font-feature-settings:normal;text-align:start;letter-spacing:0.36163405px;writing-mode:lr-tb;text-anchor:start;fill:#cfaa5c;fill-opacity:1;stroke-width:0.13699377"
           d="m -23.751047,153.36901 h -0.370313 c 0.115723,-0.21601 0.223731,-0.43203 0.331739,-0.66347 0.5709,-1.23438 -0.262305,-1.36553 -0.79463,-0.43204 -0.192872,0.33174 -0.385743,0.70977 -0.563185,1.09551 h -0.462892 c -0.08486,0 -0.100293,0.16973 -0.01543,0.16973 h 0.401172 c -0.246875,0.60176 -0.532325,1.44268 -0.601759,1.96729 -0.115722,0.84863 0.648049,0.97979 1.064651,0.57861 0.28545,-0.28545 0.416602,-0.49375 0.756056,-1.20351 0.07715,-0.1543 -0.03857,-0.18516 -0.100293,-0.0463 -0.208301,0.4166 -0.462892,0.90263 -0.817775,1.16494 -0.25459,0.18516 -0.609474,0.11572 -0.493751,-0.40117 0,0 0.108008,-0.58633 0.177442,-0.78692 0.455176,-0.4166 0.763771,-0.82549 1.026076,-1.27295 h 0.447462 c 0.07715,0 0.09258,-0.16973 0.01543,-0.16973 z m -0.154297,-0.78691 c -0.108008,0.25459 -0.23916,0.52461 -0.385743,0.78691 h -0.385743 c 0.192872,-0.43974 0.362599,-0.86406 0.547755,-1.12637 0.478322,-0.67119 0.370313,0.0154 0.223731,0.33946 z m -0.486036,0.95664 c -0.223731,0.37031 -0.486036,0.7252 -0.779201,1.02608 0.108008,-0.27002 0.254591,-0.64805 0.416603,-1.02608 z"
           inkscape:connector-curvature="0" />
      </g>
      <path
         style="fill:none;stroke:#000000;stroke-width:0;stroke-linecap:round;stroke-linejoin:round;stroke-miterlimit:10"
         inkscape:connector-curvature="0"
         class="st0"
         d="m -29.866463,161.43403 c -1.198605,-0.0216 -2.397211,-0.21597 -3.541825,-0.58311 -1.144615,-0.36714 -2.22444,-0.90705 -3.20708,-1.60894 -1.97608,-1.36058 -3.541826,-3.33666 -4.373291,-5.60429 -0.842264,-2.25683 -0.950246,-4.78362 -0.345544,-7.10525 0.583105,-2.33242 1.900492,-4.45967 3.682203,-6.06861 l 0.0216,0.0324 c -0.896255,0.78828 -1.684527,1.71693 -2.300027,2.74276 -0.302352,0.51832 -0.593904,1.04743 -0.820668,1.59814 -0.226763,0.55071 -0.421131,1.12302 -0.572307,1.70612 -0.140377,0.58311 -0.237561,1.17701 -0.291552,1.77092 -0.04319,0.5939 -0.05399,1.1986 -0.0216,1.79251 0.08639,1.18781 0.334745,2.37561 0.745079,3.48783 0.205167,0.56151 0.453526,1.10142 0.734281,1.63054 0.140377,0.25916 0.302351,0.51831 0.453527,0.76667 0.172771,0.24836 0.334745,0.49672 0.518315,0.73428 0.356343,0.47512 0.755878,0.92865 1.187808,1.33899 0.107982,0.10798 0.215965,0.20516 0.323947,0.30235 0.107983,0.0972 0.226763,0.20516 0.334746,0.29155 0.237561,0.18357 0.464325,0.37794 0.712685,0.55071 1.954482,1.38218 4.330097,2.17045 6.727308,2.17045 z"
         id="path3050-7" />
      <path
         style="fill:none;stroke:#000000;stroke-width:0;stroke-linecap:round;stroke-linejoin:round;stroke-miterlimit:10"
         inkscape:connector-curvature="0"
         class="st0"
         d="m -35.935079,139.18963 0.691088,-0.37794 c 0.237562,-0.11878 0.475123,-0.21596 0.712684,-0.33474 0.237562,-0.10798 0.485922,-0.19437 0.734282,-0.29155 0.118781,-0.054 0.248359,-0.0864 0.36714,-0.12958 l 0.377939,-0.11878 c 1.004237,-0.29156 2.051667,-0.44273 3.099097,-0.46433 2.084062,-0.0432 4.211317,0.41034 6.047019,1.44697 0.453527,0.25916 0.907053,0.53991 1.317386,0.85306 0.421132,0.31315 0.820667,0.65869 1.198607,1.02584 0.755876,0.73427 1.403773,1.56574 1.932886,2.47279 0.539913,0.89626 0.950247,1.8681 1.241798,2.87234 0.280755,1.00424 0.44273,2.05166 0.475123,3.09909 h -0.03239 c -0.0216,-2.09485 -0.6263,-4.16812 -1.706125,-5.96063 -0.539912,-0.89625 -1.209404,-1.70612 -1.965282,-2.41881 -0.755876,-0.71268 -1.608938,-1.32818 -2.515991,-1.8357 -1.814106,-1.01503 -3.898167,-1.56575 -5.982229,-1.53335 -2.084063,0.0432 -4.168125,0.6371 -5.939037,1.72772 z"
         id="path3055-6" />
      <path
         style="fill:none;stroke:#000000;stroke-width:0;stroke-linecap:round;stroke-linejoin:round;stroke-miterlimit:10"
         inkscape:connector-curvature="0"
         class="st0"
         d="m -30.136419,160.54857 c -2.105658,-0.0756 -4.178922,-0.75588 -5.906642,-1.96528 -1.738518,-1.18781 -3.120694,-2.88313 -3.930563,-4.82682 -0.820667,-1.93289 -1.069027,-4.11413 -0.712684,-6.17659 0.345544,-2.07327 1.306588,-4.03855 2.721158,-5.5935 l 0.0216,0.0216 c -1.403772,1.55495 -2.354018,3.50943 -2.71036,5.5827 -0.356343,2.06246 -0.09718,4.23291 0.712684,6.155 0.809869,1.93288 2.181247,3.62821 3.908966,4.80522 1.716922,1.1986 3.790186,1.88969 5.885046,1.96528 z"
         id="path3060-5" />
      <path
         style="fill:none;stroke:#000000;stroke-width:0;stroke-linecap:round;stroke-linejoin:round;stroke-miterlimit:10"
         inkscape:connector-curvature="0"
         class="st0"
         d="m -35.405965,139.90232 c 1.662931,-0.98264 3.574221,-1.52255 5.507107,-1.55495 1.922089,-0.0324 3.865773,0.43193 5.5503,1.38218 1.684528,0.93945 3.131492,2.31082 4.124931,3.96296 0.993438,1.65213 1.554948,3.56342 1.59814,5.4963 h -0.03239 c -0.05399,-1.92208 -0.604702,-3.83338 -1.598141,-5.47471 -0.993438,-1.65213 -2.429606,-3.01271 -4.114133,-3.94136 -1.673729,-0.93945 -3.606615,-1.41457 -5.528704,-1.38217 -1.922088,0.0324 -3.833378,0.5615 -5.48551,1.54414 z"
         id="path3065-6" />
      <path
         style="fill:none;stroke:#000000;stroke-width:0;stroke-linecap:round;stroke-linejoin:round;stroke-miterlimit:10"
         d="m -19.10061,156.96355 c -1.023611,-0.0703 -1.956082,0.48321 -2.69956,1.13382 1.001197,0.13203 2.019187,-0.44266 2.69956,-1.13382 z"
         id="path3070-6"
         inkscape:connector-curvature="0" />
      <path
         style="fill:none;stroke:#000000;stroke-width:0;stroke-linecap:round;stroke-linejoin:round;stroke-miterlimit:10"
         d="m -22.696426,158.29174 c 0.46191,-0.89929 0.826249,-1.91134 0.68029,-2.93713 -0.73225,0.79495 -0.677944,1.93314 -0.68029,2.93713 z"
         id="path3073-06"
         inkscape:connector-curvature="0" />
      <path
         style="fill:none;stroke:#000000;stroke-width:0;stroke-linecap:round;stroke-linejoin:round;stroke-miterlimit:10"
         d="m -25.190821,160.9805 c 0.528394,0.0953 1.067697,0.0809 1.593459,-0.0167 0.266109,0.005 0.587063,0.0679 0.170678,-0.12215 -0.758111,-0.42273 -1.683107,-0.44573 -2.498418,-0.18508 0.203792,0.18082 0.467454,0.28283 0.734281,0.32395 z"
         id="path3076-00"
         inkscape:connector-curvature="0" />
      <path
         style="fill:none;stroke:#000000;stroke-width:0;stroke-linecap:round;stroke-linejoin:round;stroke-miterlimit:10"
         d="m -21.303452,159.50114 c 0.268672,-0.0538 0.75677,-0.41035 0.681747,-0.54896 -0.48819,0.1845 -1.003497,0.3826 -1.533797,0.26213 -0.662154,-0.0487 -1.248252,0.31188 -1.825915,0.57838 0.418124,0.0801 1.031606,-0.0425 1.523868,-0.0524 0.391693,-0.0373 0.783246,-0.10428 1.154097,-0.2392 z"
         id="path3079-5"
         inkscape:connector-curvature="0" />
      <path
         style="fill:none;stroke:#000000;stroke-width:0;stroke-linecap:round;stroke-linejoin:round;stroke-miterlimit:10"
         d="m -24.143391,157.3091 c -0.395384,0.42183 -0.932843,0.69374 -1.312494,1.12348 -0.164601,0.4275 -0.272298,0.87715 -0.436822,1.30612 0.981818,-0.42389 1.446583,-1.47135 1.749316,-2.4296 z"
         id="path3082-1"
         inkscape:connector-curvature="0" />
      <path
         style="fill:none;stroke:#000000;stroke-width:0;stroke-linecap:round;stroke-linejoin:round;stroke-miterlimit:10"
         d="m -20.364004,152.9466 c -0.111341,0.48205 -0.243518,0.95998 -0.443276,1.41506 -0.218242,0.58595 -0.147095,1.23242 0.08137,1.80282 0.166948,0.20257 0.216365,-0.50777 0.305715,-0.63876 0.23873,-0.83522 0.320212,-1.73914 0.05619,-2.57912 z"
         id="path3085-0"
         inkscape:connector-curvature="0" />
      <path
         style="fill:none;stroke:#000000;stroke-width:0;stroke-linecap:round;stroke-linejoin:round;stroke-miterlimit:10"
         d="m -17.372888,150.66817 c -0.388547,0.33695 -0.57715,0.89401 -0.785574,1.36598 -0.06077,0.24372 -0.4903,0.95224 -0.0304,0.53503 0.476053,-0.34474 0.691486,-0.91925 0.77457,-1.48045 0.01581,-0.12837 0.09528,-0.30861 0.0414,-0.42056 z"
         id="path3088-3"
         inkscape:connector-curvature="0" />
      <path
         style="fill:none;stroke:#000000;stroke-width:0;stroke-linecap:round;stroke-linejoin:round;stroke-miterlimit:10"
         d="m -18.65788,152.69824 c 0.09822,-0.76354 -0.206175,-1.52679 -0.593904,-2.17044 -0.169703,0.72849 -0.160153,1.64882 0.523335,2.11913 z"
         id="path3091-49"
         inkscape:connector-curvature="0" />
      <path
         style="fill:none;stroke:#000000;stroke-width:0;stroke-linecap:round;stroke-linejoin:round;stroke-miterlimit:10"
         d="m -17.729231,153.98324 c -0.626374,0.22968 -1.069478,0.74569 -1.447471,1.27115 -0.187299,0.30934 -0.812377,0.73501 -0.822259,0.87309 1.105022,-0.14739 1.885797,-1.16901 2.26973,-2.14424 z"
         id="path3094-9"
         inkscape:connector-curvature="0" />
      <path
         style="fill:none;stroke:#000000;stroke-width:0;stroke-linecap:round;stroke-linejoin:round;stroke-miterlimit:10"
         inkscape:connector-curvature="0"
         class="st0"
         d="m -17.318897,150.4738 c -0.07559,-0.0216 -0.118781,0.0432 -0.151176,0.0864 -0.237561,0.30235 -0.442728,0.6155 -0.593904,0.97184 -0.140377,0.32395 -0.280755,0.6587 -0.453526,0.98264 -0.0216,-0.24835 -0.05399,-0.48592 -0.07559,-0.73428 -0.0324,-0.48592 -0.259158,-0.88545 -0.507519,-1.26339 -0.06479,-0.0972 -0.05399,-0.30235 -0.215963,-0.26996 -0.09718,0.0216 -0.06479,0.20517 -0.08639,0.31315 -0.09718,0.41034 -0.07559,0.82067 -0.0216,1.2418 0.0324,0.28075 0.172773,0.51832 0.388737,0.70189 0.291553,0.25915 0.356343,0.53991 0.205167,0.90705 -0.291552,0.71268 -0.680288,1.37138 -1.112219,2.00847 -0.08639,0.12958 -0.18357,0.26996 -0.280755,0.39954 -0.0216,0.0324 -0.04319,0.0972 -0.09718,0.0756 -0.06479,-0.0216 -0.0324,-0.0972 -0.0216,-0.14038 0.05399,-0.23757 0.107981,-0.47512 0.161972,-0.71268 0.172773,-0.75588 0.161975,-1.50096 -0.06479,-2.24604 -0.02159,-0.0648 -0.04319,-0.11878 -0.06479,-0.17277 -0.0216,-0.0432 -0.04319,-0.0864 -0.09718,-0.0756 -0.06479,0.0108 -0.05399,0.0648 -0.06479,0.10798 -0.04319,0.66949 -0.313151,1.27419 -0.529114,1.90049 -0.161975,0.46433 -0.08639,0.92865 0.07559,1.38218 0.140375,0.38874 0.07559,0.72348 -0.19437,1.02583 -0.410332,0.46433 -0.853062,0.90706 -1.371377,1.28499 0.09718,-0.23756 0.194368,-0.48592 0.291553,-0.71268 0.24836,-0.56151 0.313149,-1.16621 0.323948,-1.77091 0,-0.22677 0,-0.45353 0,-0.68029 0,-0.054 -0.01081,-0.10798 -0.07559,-0.12958 -0.06479,-0.0108 -0.09719,0.0324 -0.118781,0.0864 -0.151176,0.48591 -0.49672,0.87465 -0.626299,1.38217 -0.107982,0.39953 -0.08639,0.80987 -0.09718,1.2094 -0.01081,0.30235 -0.107982,0.58311 -0.172771,0.87466 -0.0216,0.0972 -0.07559,0.19437 -0.18357,0.25916 -0.874659,0.5723 -1.803308,1.03663 -2.785949,1.39297 -0.0108,0 -0.0324,0 -0.09718,-0.0108 0.280755,-0.22677 0.518316,-0.44273 0.788272,-0.6371 0.43193,-0.32394 0.745079,-0.72348 0.917852,-1.2418 0.129578,-0.37794 0.269956,-0.74508 0.399535,-1.12302 0.0216,-0.0648 0.07559,-0.15117 -0.0108,-0.19437 -0.06479,-0.0324 -0.107982,0.0432 -0.151175,0.0864 -0.313149,0.36714 -0.68029,0.68029 -1.079825,0.93945 -0.345544,0.22676 -0.496719,0.55071 -0.583105,0.93945 -0.07559,0.34554 -0.194369,0.68028 -0.399535,0.97184 -0.183571,0.26996 -0.421132,0.44273 -0.74508,0.50752 -0.507518,0.0864 -1.015035,0.19437 -1.522553,0.21596 -0.07559,0 -0.172772,-0.0108 -0.18357,0.0756 -0.0108,0.0756 0.107982,0.0756 0.161974,0.0972 0.388737,0.17277 0.777474,0.0432 1.166211,-0.0324 0.205166,-0.0324 0.399534,-0.0972 0.593903,-0.17278 0.118781,-0.0432 0.226763,-0.054 0.334746,0.0324 0.755877,0.57231 1.608939,0.65869 2.505194,0.52911 0.377938,-0.054 0.755877,-0.054 1.112219,0.0864 0.06479,0.0216 0.12958,0.054 0.161974,-0.0216 0.0324,-0.0756 -0.05399,-0.10799 -0.09718,-0.14038 -0.583107,-0.29156 -1.155414,-0.6047 -1.803309,-0.70189 -0.36714,-0.054 -0.734281,0.0216 -1.101421,0.0864 -0.205167,0.0324 -0.399536,0.054 -0.6155,-0.0216 0.464324,-0.15118 0.896254,-0.35635 1.349781,-0.53992 0.172772,-0.0756 0.377938,0.0108 0.561508,0.0216 1.047431,0.0648 2.073265,0.0216 3.066704,-0.33474 0.215965,-0.0756 0.410334,-0.19437 0.572306,-0.35635 0.05399,-0.054 0.107984,-0.11878 0.140378,-0.19437 0.03239,-0.0648 0.05399,-0.15117 -0.01081,-0.20516 -0.05399,-0.0432 -0.11878,-0.0324 -0.18357,-0.0108 -0.03239,0.0108 -0.06479,0.0324 -0.09718,0.0432 -0.49672,0.20517 -1.015035,0.30235 -1.565746,0.21597 -0.367142,-0.054 -0.701887,0.11878 -1.036633,0.26995 -0.269956,0.11879 -0.539912,0.23757 -0.842263,0.25916 0.669491,-0.37794 1.306588,-0.77747 1.889694,-1.26339 0.06479,-0.054 0.11878,-0.0648 0.194368,-0.0648 0.215966,0 0.431929,-0.0216 0.647895,-0.0216 0.507518,0 0.982642,-0.12958 1.41457,-0.39954 0.453526,-0.28075 0.885457,-0.5939 1.263395,-0.98264 0.0432,-0.0432 0.118781,-0.0864 0.07559,-0.15117 -0.05399,-0.0756 -0.107981,-0.0108 -0.161972,0.0108 -0.140378,0.0648 -0.291554,0.0972 -0.44273,0.10798 -0.79907,0.0432 -1.522552,0.30235 -2.116456,0.85306 -0.07559,0.0648 -0.151176,0.15118 -0.269956,0.16197 0.02159,-0.0864 0.07559,-0.11878 0.129579,-0.17277 0.215965,-0.23756 0.475123,-0.45353 0.658693,-0.72348 0.259157,-0.38874 0.6155,-0.57231 1.047429,-0.69109 0.939448,-0.25916 1.619738,-0.84226 2.04087,-1.72772 0.107982,-0.23756 0.237561,-0.46432 0.356343,-0.70189 0.03239,-0.054 0.05399,-0.12958 0,-0.17277 -0.05399,-0.0324 -0.09719,0.0216 -0.129579,0.0648 -0.129581,0.14038 -0.291553,0.21597 -0.453528,0.29156 -0.377938,0.19436 -0.68029,0.47512 -0.939448,0.80986 -0.194368,0.24836 -0.367139,0.51832 -0.604702,0.73429 -0.161972,0.15117 -0.313148,0.33474 -0.550709,0.43192 0.118781,-0.25915 0.291552,-0.45352 0.442728,-0.66949 0.421132,-0.63709 0.777473,-1.30658 1.101422,-1.99767 0.140375,-0.29156 0.313149,-0.52912 0.572306,-0.71269 0.367142,-0.25916 0.56151,-0.6155 0.658693,-1.04743 0.06479,-0.30235 0.129579,-0.6047 0.151176,-0.90705 0.01081,-0.0756 0.0216,-0.15118 -0.06479,-0.18357 z"
         id="path3097-12" />
      <path
         style="fill:none;stroke:#000000;stroke-width:0;stroke-linecap:round;stroke-linejoin:round;stroke-miterlimit:10"
         d="m -25.557961,158.71287 c 0.101097,-0.53406 0.691828,-0.7227 1.037831,-1.07365 0.179244,-0.13274 0.493815,-0.5082 0.296472,-0.0861 -0.298122,0.88075 -0.777292,1.80121 -1.669049,2.19637 0.127605,-0.34012 0.236466,-0.687 0.334746,-1.03663 z"
         id="path3100-76"
         inkscape:connector-curvature="0" />
      <path
         style="fill:none;stroke:#000000;stroke-width:0;stroke-linecap:round;stroke-linejoin:round;stroke-miterlimit:10"
         d="m -23.171549,160.9913 c -0.532568,-0.10002 -1.05636,0.13538 -1.591587,0.04 -0.344412,-0.0101 -1.118842,-0.15126 -1.084754,-0.40014 0.89465,-0.2702 1.893779,-0.16957 2.676341,0.36015 z"
         id="path3103-1"
         inkscape:connector-curvature="0" />
      <path
         style="fill:none;stroke:#000000;stroke-width:0;stroke-linecap:round;stroke-linejoin:round;stroke-miterlimit:10"
         d="m -23.22554,159.42555 c 0.459476,-0.23125 0.980354,-0.25537 1.480204,-0.18762 0.416964,-0.005 0.798775,-0.19077 1.186963,-0.31989 -0.27756,0.53856 -0.947657,0.64704 -1.482768,0.76516 -0.634262,0.10568 -1.279688,0.0875 -1.91868,0.14189 0.113334,-0.18988 0.513526,-0.26782 0.734281,-0.39954 z"
         id="path3106-2"
         inkscape:connector-curvature="0" />
      <path
         style="fill:none;stroke:#000000;stroke-width:0;stroke-linecap:round;stroke-linejoin:round;stroke-miterlimit:10"
         d="m -22.016136,155.35461 c 0.147093,1.02617 -0.222372,2.0363 -0.68029,2.93713 0.003,-1.0078 -0.05302,-2.13848 0.68029,-2.93713 z"
         id="path3109-8"
         inkscape:connector-curvature="0" />
      <path
         style="fill:none;stroke:#000000;stroke-width:0;stroke-linecap:round;stroke-linejoin:round;stroke-miterlimit:10"
         d="m -19.10061,156.96355 c -0.665808,0.66952 -1.583512,1.19868 -2.552865,1.15644 -0.32029,-0.0398 0.333839,-0.35274 0.449739,-0.48678 0.609286,-0.43481 1.34402,-0.7254 2.103126,-0.66966 z"
         id="path3112-2"
         inkscape:connector-curvature="0" />
      <path
         style="fill:none;stroke:#000000;stroke-width:0;stroke-linecap:round;stroke-linejoin:round;stroke-miterlimit:10"
         d="m -20.69875,156.21848 c -0.192326,-0.54043 -0.331057,-1.13199 -0.153514,-1.6978 0.173834,-0.50329 0.392197,-0.99373 0.477125,-1.52367 0.177188,0.20472 0.21646,1.0596 0.160409,1.50208 -0.08784,0.57194 -0.187946,1.26597 -0.473562,1.71939 z"
         id="path3115-6"
         inkscape:connector-curvature="0" />
      <path
         style="fill:none;stroke:#000000;stroke-width:0;stroke-linecap:round;stroke-linejoin:round;stroke-miterlimit:10"
         d="m -18.927837,154.92269 c 0.255768,-0.38272 0.854783,-0.87086 1.166155,-0.88249 -0.37836,0.94763 -1.117844,1.88276 -2.170332,2.0776 -0.38386,0.0592 0.325896,-0.31581 0.398579,-0.47912 0.222022,-0.22063 0.423818,-0.46128 0.605598,-0.71599 z"
         id="path3118-0"
         inkscape:connector-curvature="0" />
      <path
         style="fill:none;stroke:#000000;stroke-width:0;stroke-linecap:round;stroke-linejoin:round;stroke-miterlimit:10"
         d="m -18.65788,152.69824 c -0.597395,-0.36719 -0.772236,-1.12388 -0.657035,-1.77672 0.02492,-0.20167 0.04529,-0.55955 0.185152,-0.19282 0.313508,0.59492 0.567859,1.28761 0.471883,1.96954 z"
         id="path3121-2"
         inkscape:connector-curvature="0" />
      <path
         style="fill:none;stroke:#000000;stroke-width:0;stroke-linecap:round;stroke-linejoin:round;stroke-miterlimit:10"
         d="m -17.351293,150.76536 c -0.08548,0.60598 -0.207138,1.27026 -0.693955,1.69533 -0.177768,0.16879 -0.532318,0.44953 -0.275304,0.0206 0.252815,-0.62366 0.47207,-1.2953 0.929778,-1.80143 0.0581,-0.0219 0.05065,0.0573 0.03948,0.0855 z"
         id="path3124-1"
         inkscape:connector-curvature="0" />
      <path
         style="fill:#d2aa5c;stroke-width:0.11641961"
         inkscape:connector-curvature="0"
         class="st2"
         d="m -17.318897,150.4738 c -0.07559,-0.0216 -0.118781,0.0432 -0.151176,0.0864 -0.237561,0.30235 -0.442728,0.6155 -0.593904,0.97184 -0.140377,0.32395 -0.280755,0.6587 -0.453526,0.98264 -0.0216,-0.24835 -0.05399,-0.48592 -0.07559,-0.73428 -0.0324,-0.48592 -0.259158,-0.88545 -0.507519,-1.26339 -0.06479,-0.0972 -0.05399,-0.30235 -0.215963,-0.26996 -0.09718,0.0216 -0.06479,0.20517 -0.08639,0.31315 -0.09718,0.41034 -0.07559,0.82067 -0.0216,1.2418 0.0324,0.28075 0.172773,0.51832 0.388737,0.70189 0.291553,0.25915 0.356343,0.53991 0.205167,0.90705 -0.291552,0.71268 -0.680288,1.37138 -1.112219,2.00847 -0.08639,0.12958 -0.18357,0.26996 -0.280755,0.39954 -0.0216,0.0324 -0.04319,0.0972 -0.09718,0.0756 -0.06479,-0.0216 -0.0324,-0.0972 -0.0216,-0.14038 0.05399,-0.23757 0.107981,-0.47512 0.161972,-0.71268 0.172773,-0.75588 0.161975,-1.50096 -0.06479,-2.24604 -0.02159,-0.0648 -0.04319,-0.11878 -0.06479,-0.17277 -0.0216,-0.0432 -0.04319,-0.0864 -0.09718,-0.0756 -0.06479,0.0108 -0.05399,0.0648 -0.06479,0.10798 -0.04319,0.66949 -0.313151,1.27419 -0.529114,1.90049 -0.161975,0.46433 -0.08639,0.92865 0.07559,1.38218 0.140375,0.38874 0.07559,0.72348 -0.19437,1.02583 -0.410332,0.46433 -0.853062,0.90706 -1.371377,1.28499 0.09718,-0.23756 0.194368,-0.48592 0.291553,-0.71268 0.24836,-0.56151 0.313149,-1.16621 0.323948,-1.77091 0,-0.22677 0,-0.45353 0,-0.68029 0,-0.054 -0.01081,-0.10798 -0.07559,-0.12958 -0.06479,-0.0108 -0.09719,0.0324 -0.118781,0.0864 -0.151176,0.48591 -0.49672,0.87465 -0.626299,1.38217 -0.107982,0.39953 -0.08639,0.80987 -0.09718,1.2094 -0.01081,0.30235 -0.107982,0.58311 -0.172771,0.87466 -0.0216,0.0972 -0.07559,0.19437 -0.18357,0.25916 -0.874659,0.5723 -1.803308,1.03663 -2.785949,1.39297 -0.0108,0 -0.0324,0 -0.09718,-0.0108 0.280755,-0.22677 0.518316,-0.44273 0.788272,-0.6371 0.43193,-0.32394 0.745079,-0.72348 0.917852,-1.2418 0.129578,-0.37794 0.269956,-0.74508 0.399535,-1.12302 0.0216,-0.0648 0.07559,-0.15117 -0.0108,-0.19437 -0.06479,-0.0324 -0.107982,0.0432 -0.151175,0.0864 -0.313149,0.36714 -0.68029,0.68029 -1.079825,0.93945 -0.345544,0.22676 -0.496719,0.55071 -0.583105,0.93945 -0.07559,0.34554 -0.194369,0.68028 -0.399535,0.97184 -0.183571,0.26996 -0.421132,0.44273 -0.74508,0.50752 -0.507518,0.0864 -1.015035,0.19437 -1.522553,0.21596 -0.07559,0 -0.172772,-0.0108 -0.18357,0.0756 -0.0108,0.0756 0.107982,0.0756 0.161974,0.0972 0.388737,0.17277 0.777474,0.0432 1.166211,-0.0324 0.205166,-0.0324 0.399534,-0.0972 0.593903,-0.17278 0.118781,-0.0432 0.226763,-0.054 0.334746,0.0324 0.755877,0.57231 1.608939,0.65869 2.505194,0.52911 0.377938,-0.054 0.755877,-0.054 1.112219,0.0864 0.06479,0.0216 0.12958,0.054 0.161974,-0.0216 0.0324,-0.0756 -0.05399,-0.10799 -0.09718,-0.14038 -0.583107,-0.29156 -1.155414,-0.6047 -1.803309,-0.70189 -0.36714,-0.054 -0.734281,0.0216 -1.101421,0.0864 -0.205167,0.0324 -0.399536,0.054 -0.6155,-0.0216 0.464324,-0.15118 0.896254,-0.35635 1.349781,-0.53992 0.172772,-0.0756 0.377938,0.0108 0.561508,0.0216 1.047431,0.0648 2.073265,0.0216 3.066704,-0.33474 0.215965,-0.0756 0.410334,-0.19437 0.572306,-0.35635 0.05399,-0.054 0.107984,-0.11878 0.140378,-0.19437 0.03239,-0.0648 0.05399,-0.15117 -0.01081,-0.20516 -0.05399,-0.0432 -0.11878,-0.0324 -0.18357,-0.0108 -0.03239,0.0108 -0.06479,0.0324 -0.09718,0.0432 -0.49672,0.20517 -1.015035,0.30235 -1.565746,0.21597 -0.367142,-0.054 -0.701887,0.11878 -1.036633,0.26995 -0.269956,0.11879 -0.539912,0.23757 -0.842263,0.25916 0.669491,-0.37794 1.306588,-0.77747 1.889694,-1.26339 0.06479,-0.054 0.11878,-0.0648 0.194368,-0.0648 0.215966,0 0.431929,-0.0216 0.647895,-0.0216 0.507518,0 0.982642,-0.12958 1.41457,-0.39954 0.453526,-0.28075 0.885457,-0.5939 1.263395,-0.98264 0.0432,-0.0432 0.118781,-0.0864 0.07559,-0.15117 -0.05399,-0.0756 -0.107981,-0.0108 -0.161972,0.0108 -0.140378,0.0648 -0.291554,0.0972 -0.44273,0.10798 -0.79907,0.0432 -1.522552,0.30235 -2.116456,0.85306 -0.07559,0.0648 -0.151176,0.15118 -0.269956,0.16197 0.02159,-0.0864 0.07559,-0.11878 0.129579,-0.17277 0.215965,-0.23756 0.475123,-0.45353 0.658693,-0.72348 0.259157,-0.38874 0.6155,-0.57231 1.047429,-0.69109 0.939448,-0.25916 1.619738,-0.84226 2.04087,-1.72772 0.107982,-0.23756 0.237561,-0.46432 0.356343,-0.70189 0.03239,-0.054 0.05399,-0.12958 0,-0.17277 -0.05399,-0.0324 -0.09719,0.0216 -0.129579,0.0648 -0.129581,0.14038 -0.291553,0.21597 -0.453528,0.29156 -0.377938,0.19436 -0.68029,0.47512 -0.939448,0.80986 -0.194368,0.24836 -0.367139,0.51832 -0.604702,0.73429 -0.161972,0.15117 -0.313148,0.33474 -0.550709,0.43192 0.118781,-0.25915 0.291552,-0.45352 0.442728,-0.66949 0.421132,-0.63709 0.777473,-1.30658 1.101422,-1.99767 0.140375,-0.29156 0.313149,-0.52912 0.572306,-0.71269 0.367142,-0.25916 0.56151,-0.6155 0.658693,-1.04743 0.06479,-0.30235 0.129579,-0.6047 0.151176,-0.90705 0.01081,-0.0756 0.0216,-0.15118 -0.06479,-0.18357 z m -8.239064,8.23907 c 0.04319,-0.15118 0.08638,-0.31315 0.215964,-0.42113 0.388737,-0.32395 0.799071,-0.6047 1.198606,-0.98264 -0.421132,1.33898 -0.950246,2.07326 -1.749316,2.4404 0.129579,-0.34555 0.237561,-0.69109 0.334746,-1.03663 z m 2.386412,2.27843 c -0.259158,-0.0324 -0.453526,-0.0432 -0.647895,0 -0.453526,0.0972 -0.917851,0.054 -1.371377,-0.0108 -0.291553,-0.0432 -0.539912,-0.15117 -0.745079,-0.32394 0.939447,-0.28076 1.857299,-0.24836 2.764351,0.33474 z m -0.05399,-1.56575 c 0.388737,-0.17277 0.79907,-0.26995 1.231001,-0.20517 0.334746,0.054 0.658693,-0.0216 0.98264,-0.14037 0.140378,-0.054 0.280755,-0.0972 0.453526,-0.16197 -0.172771,0.34554 -0.453526,0.46432 -0.745079,0.5723 -0.86386,0.32395 -1.770912,0.25916 -2.656369,0.33475 0,-0.0216 -0.0108,-0.0324 -0.0108,-0.054 0.237561,-0.10799 0.485921,-0.23757 0.745079,-0.34555 z m 1.209404,-4.07094 c 0.140378,1.04743 -0.205167,1.98688 -0.68029,2.93713 0.01081,-1.05823 -0.06479,-2.09486 0.68029,-2.93713 z m 2.915526,1.60894 c -0.745077,0.78828 -1.943684,1.29579 -2.69956,1.13382 0.777473,-0.65869 1.608939,-1.19861 2.69956,-1.13382 z m -1.59814,-0.74507 c -0.0216,-0.0864 -0.04319,-0.17278 -0.07559,-0.25916 -0.237561,-0.6263 -0.205167,-1.231 0.06479,-1.83571 0.09718,-0.22676 0.172773,-0.45352 0.237563,-0.69108 0.04319,-0.16198 0.05399,-0.33475 0.11878,-0.49673 0.345544,1.13382 0.08639,2.21365 -0.280755,3.28268 -0.03239,0 -0.05399,0 -0.06479,0 z m 1.770913,-1.29579 c 0.30235,-0.42114 0.691089,-0.72349 1.187807,-0.93945 -0.453526,1.2202 -1.446964,2.12725 -2.364817,2.14885 0.475123,-0.35635 0.853063,-0.75588 1.17701,-1.2094 z m 0.269957,-2.22445 c -0.777475,-0.53991 -0.755878,-1.31738 -0.593904,-2.17044 0.453526,0.69109 0.701885,1.65213 0.593904,2.17044 z m 1.306587,-1.93288 c 0,0.18357 -0.07559,0.35634 -0.09718,0.52911 -0.09718,0.6155 -0.399535,1.10143 -0.982642,1.45776 0.205167,-0.48591 0.356343,-0.95024 0.583107,-1.38217 0.11878,-0.22676 0.23756,-0.44273 0.399535,-0.6371 0.0216,-0.0216 0.04319,-0.0648 0.08639,-0.054 0.0324,0.0108 0.01081,0.054 0.01081,0.0864 z"
         id="path3127-6" />
      <path
         style="fill:none;stroke:#000000;stroke-width:0;stroke-linecap:round;stroke-linejoin:round;stroke-miterlimit:10"
         d="m -34.164166,139.01686 c 0.07825,-0.38384 0.06611,-0.78114 0.173468,-1.16117 -0.0084,-0.2275 0.387073,-0.71072 -0.03158,-0.40052 -0.566804,0.39217 -0.694214,1.14445 -0.619789,1.78677 0.0515,0.20357 -0.135991,0.80267 0.136243,0.38688 0.148638,-0.18176 0.270446,-0.38741 0.341663,-0.61196 z"
         id="path3130-3"
         inkscape:connector-curvature="0" />
      <path
         style="fill:none;stroke:#000000;stroke-width:0;stroke-linecap:round;stroke-linejoin:round;stroke-miterlimit:10"
         d="m -33.159929,138.08821 c -0.01267,-0.38993 0.123721,-1.00677 0.03712,-1.25124 -0.555286,0.22996 -0.889108,0.85183 -0.902972,1.4393 0.0626,0.61332 -0.166363,1.23985 -0.625931,1.65428 -0.142099,0.0986 -0.484374,0.48244 -0.150563,0.23987 0.578477,-0.32617 1.192381,-0.69937 1.455144,-1.34367 0.103471,-0.23339 0.163082,-0.4848 0.187202,-0.73854 z"
         id="path3133-50"
         inkscape:connector-curvature="0" />
      <path
         style="fill:none;stroke:#000000;stroke-width:0;stroke-linecap:round;stroke-linejoin:round;stroke-miterlimit:10"
         d="m -34.606894,138.32578 c 0.05809,-0.39922 0.514893,-0.97039 0.779076,-0.94436 -0.245281,0.47162 -0.260399,1.0166 -0.320361,1.53328 -0.04856,0.31554 -0.370714,0.79217 -0.524984,0.86255 0.08836,-0.48087 -0.06936,-0.97648 0.06627,-1.45147 z"
         id="path3142-47"
         inkscape:connector-curvature="0" />
      <path
         style="fill:none;stroke:#000000;stroke-width:0;stroke-linecap:round;stroke-linejoin:round;stroke-miterlimit:10"
         d="m -34.272148,139.85913 c -0.199535,0.11118 -0.574103,0.38228 -0.672466,0.37542 0.247776,-0.28153 0.571966,-0.51546 0.733762,-0.87029 0.236512,-0.39972 0.178165,-0.87009 0.219682,-1.31055 0.07839,-0.50877 0.395106,-1.01859 0.879158,-1.2213 0.09503,0.23111 -0.06339,0.80829 -0.03164,1.17684 -0.03561,0.76004 -0.477974,1.46248 -1.128502,1.84988 z"
         id="path3145-7"
         inkscape:connector-curvature="0" />
      <path
         style="fill:none;stroke:#000000;stroke-width:0;stroke-linecap:round;stroke-linejoin:round;stroke-miterlimit:10"
         d="m -38.721027,141.97558 c -0.20521,0.31018 -0.321615,0.67051 -0.546838,0.97015 -0.06022,0.22401 -0.653465,0.58041 -0.140374,0.43776 0.649584,-0.16158 1.050631,-0.79135 1.201572,-1.40771 0.01502,-0.21406 0.431346,-0.75724 0.01863,-0.45423 -0.202632,0.11817 -0.388647,0.26809 -0.532995,0.45403 z"
         id="path3151-0"
         inkscape:connector-curvature="0" />
      <path
         style="fill:none;stroke:#000000;stroke-width:0;stroke-linecap:round;stroke-linejoin:round;stroke-miterlimit:10"
         d="m -39.99522,142.4831 c -0.120999,0.37616 -0.481697,0.89756 -0.490309,1.16132 0.686546,-0.0276 1.254639,-0.6016 1.439804,-1.24084 0.205896,-0.61589 0.76893,-1.02691 1.368079,-1.21762 0.332255,-0.20605 -0.342943,0.0106 -0.50379,0.0152 -0.770287,0.10445 -1.485541,0.56321 -1.813784,1.28197 z"
         id="path3154-6"
         inkscape:connector-curvature="0" />
      <path
         style="fill:none;stroke:#000000;stroke-width:0;stroke-linecap:round;stroke-linejoin:round;stroke-miterlimit:10"
         d="m -41.064247,142.97982 c -0.162945,0.27215 -0.468425,0.61845 -0.418959,0.92165 0.412994,0.0609 0.784794,-0.22084 1.191034,-0.17657 0.354793,-0.16901 0.747403,-0.2053 1.121718,-0.30271 0.646108,-0.23567 0.980213,-0.92667 1.084499,-1.56657 0.01152,-0.42879 0.534087,-0.52242 0.64992,-0.81948 -0.235168,-0.17702 -0.627862,0.0823 -0.920758,0.089 -1.103182,0.22382 -2.103132,0.90339 -2.707454,1.85469 z"
         id="path3157-18"
         inkscape:connector-curvature="0" />
      <path
         style="fill:none;stroke:#000000;stroke-width:0;stroke-linecap:round;stroke-linejoin:round;stroke-miterlimit:10"
         d="m -41.47458,143.83288 c 0.489266,-0.81434 0.998698,-1.71322 1.900491,-2.12725 -0.453107,0.46943 -0.610623,1.12009 -0.949054,1.66031 -0.2157,0.30722 -0.598372,0.4171 -0.951437,0.46694 z"
         id="path3160-0"
         inkscape:connector-curvature="0" />
      <path
         style="fill:none;stroke:#000000;stroke-width:0;stroke-linecap:round;stroke-linejoin:round;stroke-miterlimit:10"
         d="m -38.559053,142.77465 c -0.197417,0.35241 -0.8303,0.71587 -1.065107,0.60347 0.415117,-0.36012 0.596206,-0.90012 0.871835,-1.35953 0.157111,-0.25779 0.611414,-0.57515 0.772396,-0.57261 -0.248011,0.41907 -0.283564,0.93455 -0.579124,1.32867 z"
         id="path3163-6"
         inkscape:connector-curvature="0" />
      <path
         style="fill:none;stroke:#000000;stroke-width:0;stroke-linecap:round;stroke-linejoin:round;stroke-miterlimit:10"
         d="m -38.321492,141.21971 c 0.229128,-0.0291 0.671968,-0.15043 0.765242,-0.11763 -0.376699,0.20003 -0.813676,0.33098 -1.101875,0.66987 -0.406408,0.39775 -0.411824,1.03932 -0.848475,1.41574 -0.278708,0.24761 -0.652001,0.49299 -1.039331,0.42923 0.416529,-0.6515 0.558512,-1.50758 1.23505,-1.96933 0.291542,-0.2162 0.635959,-0.35265 0.989389,-0.42788 z"
         id="path3166-4"
         inkscape:connector-curvature="0" />
      <path
         style="fill:#d2aa5c;stroke-width:0.11641961"
         d="m -41.064247,142.97982 c -0.162945,0.27215 -0.468425,0.61845 -0.418959,0.92165 0.412994,0.0609 0.784794,-0.22084 1.191034,-0.17657 0.354793,-0.16901 0.747403,-0.2053 1.121718,-0.30271 0.646108,-0.23567 0.980213,-0.92667 1.084499,-1.56657 0.01152,-0.42879 0.534087,-0.52242 0.64992,-0.81948 -0.235168,-0.17702 -0.627862,0.0823 -0.920758,0.089 -1.103182,0.22382 -2.103132,0.90339 -2.707454,1.85469 z m -0.410333,0.85306 c 0.489266,-0.81434 0.998698,-1.71322 1.900491,-2.12725 -0.453107,0.46943 -0.610623,1.12009 -0.949054,1.66031 -0.2157,0.30722 -0.598372,0.4171 -0.951437,0.46694 z m 2.915527,-1.05823 c -0.197417,0.35241 -0.8303,0.71587 -1.065107,0.60347 0.415117,-0.36012 0.596206,-0.90012 0.871835,-1.35953 0.157111,-0.25779 0.611414,-0.57515 0.772396,-0.57261 -0.248011,0.41907 -0.283564,0.93455 -0.579124,1.32867 z m 0.237561,-1.55494 c 0.229128,-0.0291 0.671968,-0.15043 0.765242,-0.11763 -0.376699,0.20003 -0.813676,0.33098 -1.101875,0.66987 -0.406408,0.39775 -0.411824,1.03932 -0.848475,1.41574 -0.278708,0.24761 -0.652001,0.49299 -1.039331,0.42923 0.416529,-0.6515 0.558512,-1.50758 1.23505,-1.96933 0.291542,-0.2162 0.635959,-0.35265 0.989389,-0.42788 z"
         id="path3169-1"
         inkscape:connector-curvature="0" />
      <path
         style="fill:none;stroke:#000000;stroke-width:0;stroke-linecap:round;stroke-linejoin:round;stroke-miterlimit:10"
         d="m -39.56329,141.69483 c -0.895928,0.42075 -1.419489,1.3069 -1.900492,2.12725 0.452317,-0.0428 0.922276,-0.26377 1.094799,-0.7119 0.233385,-0.49066 0.417131,-1.01838 0.805693,-1.41535 z"
         id="path3172-9"
         inkscape:connector-curvature="0" />
      <path
         style="fill:none;stroke:#000000;stroke-width:0;stroke-linecap:round;stroke-linejoin:round;stroke-miterlimit:10"
         d="m -37.414439,141.51126 c 0.08003,0.40162 0.245384,0.78262 0.290058,1.19343 0.06919,0.21308 -0.08372,0.72336 0.176407,0.29884 0.374932,-0.57555 0.218486,-1.32714 -0.100464,-1.89075 -0.128409,-0.17288 -0.180111,-0.79365 -0.284001,-0.30155 -0.07305,0.22486 -0.107338,0.46409 -0.082,0.70003 z"
         id="path3175-6"
         inkscape:connector-curvature="0" />
      <path
         style="fill:none;stroke:#000000;stroke-width:0;stroke-linecap:round;stroke-linejoin:round;stroke-miterlimit:10"
         d="m -38.008343,142.75306 c 0.157778,0.36171 0.260643,0.98202 0.438679,1.18376 0.474546,-0.49943 0.496666,-1.30132 0.195713,-1.89899 -0.266965,-0.59118 -0.132277,-1.27424 0.167378,-1.82506 0.09867,-0.3905 -0.290336,0.30898 -0.416839,0.42665 -0.443173,0.59913 -0.621336,1.39619 -0.384931,2.11364 z"
         id="path3178-8"
         inkscape:connector-curvature="0" />
      <path
         style="fill:none;stroke:#000000;stroke-width:0;stroke-linecap:round;stroke-linejoin:round;stroke-miterlimit:10"
         d="m -38.440272,143.84368 c 0.06415,0.31103 0.08511,0.77068 0.330422,0.95794 0.350972,-0.21304 0.393204,-0.68963 0.738604,-0.90395 0.146634,-0.37594 0.403344,-0.68938 0.618857,-1.0241 0.302365,-0.61319 0.0777,-1.34438 -0.275338,-1.88569 -0.290109,-0.32052 0.03851,-0.75184 -0.09516,-1.04237 -0.288267,0.0385 -0.402953,0.48331 -0.609779,0.68825 -0.656869,0.91772 -0.910336,2.10141 -0.707607,3.20992 z"
         id="path3181-7"
         inkscape:connector-curvature="0" />
      <path
         style="fill:none;stroke:#000000;stroke-width:0;stroke-linecap:round;stroke-linejoin:round;stroke-miterlimit:10"
         d="m -38.159518,144.73994 c -0.199888,-0.93287 -0.432396,-1.93819 -0.06479,-2.86154 -0.03085,0.68276 0.358988,1.28026 0.448929,1.93942 0.01748,0.34795 -0.172675,0.66198 -0.384139,0.92212 z"
         id="path3184-4"
         inkscape:connector-curvature="0" />
      <path
         style="fill:none;stroke:#000000;stroke-width:0;stroke-linecap:round;stroke-linejoin:round;stroke-miterlimit:10"
         d="m -36.755746,141.97558 c 0.0936,0.3945 -0.115575,1.0926 -0.367517,1.17444 0.05412,-0.54604 -0.167835,-1.06632 -0.294685,-1.58637 -0.05822,-0.29351 0.04583,-0.83541 0.166469,-0.94362 0.117018,0.46993 0.45043,0.86509 0.495733,1.35555 z"
         id="path3187-6"
         inkscape:connector-curvature="0" />
      <path
         style="fill:none;stroke:#000000;stroke-width:0;stroke-linecap:round;stroke-linejoin:round;stroke-miterlimit:10"
         d="m -37.641202,140.69059 c 0.145136,-0.17554 0.376933,-0.56775 0.475355,-0.60027 -0.135242,0.406 -0.367174,0.80099 -0.345955,1.24675 -0.02318,0.56729 0.403564,1.04185 0.344373,1.61441 -0.03192,0.37275 -0.138094,0.80115 -0.452177,1.03258 -0.127124,-0.75375 -0.618371,-1.45333 -0.465771,-2.24474 0.05686,-0.38012 0.222796,-0.73706 0.444175,-1.04873 z"
         id="path3190-51"
         inkscape:connector-curvature="0" />
      <path
         style="fill:#d2aa5c;stroke-width:0.11641961"
         d="m -38.440272,143.84368 c 0.06415,0.31103 0.08511,0.77068 0.330422,0.95794 0.350972,-0.21304 0.393204,-0.68963 0.738604,-0.90395 0.146634,-0.37594 0.403344,-0.68938 0.618857,-1.0241 0.302365,-0.61319 0.0777,-1.34438 -0.275338,-1.88569 -0.290109,-0.32052 0.03851,-0.75184 -0.09516,-1.04237 -0.288267,0.0385 -0.402953,0.48331 -0.609779,0.68825 -0.656869,0.91772 -0.910336,2.10141 -0.707607,3.20992 z m 0.280754,0.89626 c -0.199888,-0.93287 -0.432396,-1.93819 -0.06479,-2.86154 -0.03085,0.68276 0.358988,1.28026 0.448929,1.93942 0.01748,0.34795 -0.172675,0.66198 -0.384139,0.92212 z m 1.403772,-2.76436 c 0.0936,0.3945 -0.115575,1.0926 -0.367517,1.17444 0.05412,-0.54604 -0.167835,-1.06632 -0.294685,-1.58637 -0.05822,-0.29351 0.04583,-0.83541 0.166469,-0.94362 0.117018,0.46993 0.45043,0.86509 0.495733,1.35555 z m -0.885456,-1.28499 c 0.145136,-0.17554 0.376933,-0.56775 0.475355,-0.60027 -0.135242,0.406 -0.367174,0.80099 -0.345955,1.24675 -0.02318,0.56729 0.403564,1.04185 0.344373,1.61441 -0.03192,0.37275 -0.138094,0.80115 -0.452177,1.03258 -0.127124,-0.75375 -0.618371,-1.45333 -0.465771,-2.24474 0.05686,-0.38012 0.222796,-0.73706 0.444175,-1.04873 z"
         id="path3193-0"
         inkscape:connector-curvature="0" />
      <path
         style="fill:none;stroke:#000000;stroke-width:0;stroke-linecap:round;stroke-linejoin:round;stroke-miterlimit:10"
         d="m -37.40364,140.59341 c 0.36368,-0.26154 0.357604,0.46796 0.45032,0.69156 -0.04304,0.43569 -0.09735,0.90464 0.127175,1.30637 0.02736,0.22363 0.562405,0.53878 0.351154,0.59365 -0.575601,-0.0109 -0.925526,-0.53236 -1.298489,-0.89423 -0.374267,-0.56165 -0.07987,-1.27911 0.36984,-1.69735 z"
         id="path3196-3"
         inkscape:connector-curvature="0" />
      <path
         style="fill:none;stroke:#000000;stroke-width:0;stroke-linecap:round;stroke-linejoin:round;stroke-miterlimit:10"
         d="m -34.833657,140.91736 c -0.253613,-0.0875 -0.798595,-0.33842 -0.781207,-0.47661 0.401772,-0.0915 0.755362,-0.35249 1.192215,-0.25515 0.304945,8.2e-4 1.171097,0.15299 0.61622,0.52588 -0.291434,0.20131 -0.679921,0.31334 -1.027228,0.20588 z"
         id="path3199-36"
         inkscape:connector-curvature="0" />
      <path
         style="fill:none;stroke:#000000;stroke-width:0;stroke-linecap:round;stroke-linejoin:round;stroke-miterlimit:10"
         d="m -36.323816,140.21547 c 0.534919,-0.19143 1.006569,-0.66583 1.004238,-1.2634 0.0543,-0.23182 0.09082,-0.8238 0.394135,-0.75992 0.159262,0.41864 0.42893,0.8569 0.271307,1.32008 -0.188908,0.67471 -1.050509,1.07574 -1.66968,0.70324 z"
         id="path3202-72"
         inkscape:connector-curvature="0" />
      <path
         style="fill:none;stroke:#000000;stroke-width:0;stroke-linecap:round;stroke-linejoin:round;stroke-miterlimit:10"
         d="m -37.0365,140.58261 c 0.110114,-0.46378 0.878196,-0.23626 1.212778,-0.0962 0.45083,0.2499 0.907465,0.60709 1.456998,0.53729 0.206851,0.0346 0.634169,-0.26651 0.635991,-0.19353 -0.238418,0.34815 -0.484157,0.73572 -0.915621,0.86106 -0.832845,0.37341 -1.912184,-0.0277 -2.315571,-0.83836 -0.03674,-0.0862 -0.06175,-0.17743 -0.07458,-0.27029 z"
         id="path3205-1"
         inkscape:connector-curvature="0" />
      <path
         style="fill:none;stroke:#000000;stroke-width:0;stroke-linecap:round;stroke-linejoin:round;stroke-miterlimit:10"
         d="m -36.60457,140.0427 c -0.312736,0.4514 -0.436539,-0.41218 -0.758029,-0.48881 -0.470367,-0.1075 -0.638273,-0.55011 -0.624231,-0.99943 -0.03346,-0.45522 0.413639,-0.67544 0.703826,-0.93293 0.259485,0.10163 0.423705,0.42934 0.635241,0.62866 0.407772,0.49924 0.463573,1.28274 0.04319,1.79251 z"
         id="path3208-98"
         inkscape:connector-curvature="0" />
      <path
         style="fill:none;stroke:#000000;stroke-width:0;stroke-linecap:round;stroke-linejoin:round;stroke-miterlimit:10"
         d="m -37.975948,139.15724 c 0.124065,0.25871 -0.494844,0.17254 -0.281091,-0.13025 0.01242,-0.20813 0.225637,-0.79233 0.19209,-0.25739 0.0145,0.132 0.04049,0.26362 0.089,0.38764 z"
         id="path3211-20"
         inkscape:connector-curvature="0" />
      <path
         style="fill:none;stroke:#000000;stroke-width:0;stroke-linecap:round;stroke-linejoin:round;stroke-miterlimit:10"
         d="m -35.351973,138.67132 c -0.06364,0.40079 -0.09384,0.85628 -0.445874,1.12341 -0.145518,0.15733 -0.692967,0.4264 -0.691562,0.25053 0.355994,-0.38483 0.178561,-0.94197 0.303988,-1.35985 0.206711,-0.33177 0.853171,-0.60701 1.081272,-0.57143 -0.138055,0.15575 -0.206619,0.35679 -0.247824,0.55734 z"
         id="path3214-2"
         inkscape:connector-curvature="0" />
      <path
         style="fill:none;stroke:#000000;stroke-width:0;stroke-linecap:round;stroke-linejoin:round;stroke-miterlimit:10"
         d="m -36.863728,142.28873 c -0.07553,-0.30994 -0.04273,-0.92822 0.04266,-1.05169 0.234376,0.29814 0.572616,0.4759 0.918724,0.60964 0.297155,0.39166 -0.30318,0.81404 -0.449139,1.17245 -0.240403,-0.14892 -0.421778,-0.4563 -0.512242,-0.7304 z"
         id="path3217-1"
         inkscape:connector-curvature="0" />
      <path
         style="fill:none;stroke:#000000;stroke-width:0;stroke-linecap:round;stroke-linejoin:round;stroke-miterlimit:10"
         d="m -37.306456,139.72955 c 0.297878,0.1931 0.535588,0.63817 0.01505,0.66858 -0.41516,0.17165 -0.622374,0.60637 -0.750684,1.00919 -0.383882,0.23272 -0.880198,0.0331 -1.204592,-0.22845 -0.377006,-0.21435 -0.61208,-0.61492 -0.209136,-0.93016 0.398625,-0.54094 1.109267,-0.97309 1.79317,-0.75292 0.133957,0.051 0.253864,0.13416 0.356189,0.23376 z"
         id="path3220-5"
         inkscape:connector-curvature="0" />
      <path
         style="fill:none;stroke:#000000;stroke-width:0;stroke-linecap:round;stroke-linejoin:round;stroke-miterlimit:10"
         d="m -34.855254,138.09901 c -0.339471,-0.34137 -0.981752,0.0896 -1.283312,0.36939 -0.245266,0.36715 -0.304113,-0.38489 -0.551726,-0.47736 -0.226982,-0.20626 -0.520544,-0.81182 -0.802772,-0.32328 -0.531071,0.37391 -0.913136,0.98151 -0.947545,1.63762 -0.348576,0.28121 -0.845576,0.42284 -1.079488,0.8453 -0.235389,0.27952 -0.412109,0.66158 -0.0086,0.88918 0.350955,0.38188 0.865386,0.64839 1.394776,0.5669 0.154052,0.38159 0.277335,0.86203 0.634397,1.15035 0.318566,0.2718 0.824034,0.62718 1.229144,0.4736 0.0642,-0.5195 0.66848,-0.81714 0.605209,-1.37391 0.57795,0.0925 1.217371,-0.0354 1.620852,-0.48597 0.210354,-0.28104 0.74012,-0.73652 0.571192,-1.05818 -0.344532,-0.23495 -0.987739,-0.24369 -1.226216,-0.32232 0.401891,-0.41763 0.32827,-1.09327 -0.0018,-1.52983 -0.06346,-0.11486 -0.114535,-0.23644 -0.154165,-0.36149 z"
         id="path3223-4"
         inkscape:connector-curvature="0" />
      <path
         style="fill:none;stroke:#000000;stroke-width:0;stroke-linecap:round;stroke-linejoin:round;stroke-miterlimit:10"
         d="m -35.146807,140.16148 c -0.289596,0.26369 -0.993137,0.25512 -1.123867,0.0313 0.514414,-0.19615 0.95244,-0.66604 0.951096,-1.24074 0.0543,-0.23183 0.09082,-0.8238 0.394135,-0.75992 0.159461,0.41895 0.429689,0.85809 0.269957,1.32143 -0.07739,0.26689 -0.258729,0.4979 -0.491321,0.64789 z"
         id="path3226-11"
         inkscape:connector-curvature="0" />
      <path
         style="fill:none;stroke:#000000;stroke-width:0;stroke-linecap:round;stroke-linejoin:round;stroke-miterlimit:10"
         d="m -34.833657,140.91736 c -0.253613,-0.0875 -0.798595,-0.33842 -0.781207,-0.47661 0.401772,-0.0915 0.755362,-0.35249 1.192215,-0.25515 0.304945,8.2e-4 1.171097,0.15299 0.61622,0.52588 -0.291434,0.20131 -0.679921,0.31334 -1.027228,0.20588 z"
         id="path3229-2"
         inkscape:connector-curvature="0" />
      <path
         style="fill:none;stroke:#000000;stroke-width:0;stroke-linecap:round;stroke-linejoin:round;stroke-miterlimit:10"
         d="m -36.442597,141.44647 c -0.315621,-0.21894 -0.7364,-0.67583 -0.524051,-1.05975 0.563632,-0.19618 1.162223,0.0518 1.622003,0.38207 0.474508,0.30817 1.124537,0.36498 1.601611,0.0298 -0.05478,0.16211 -0.416091,0.72274 -0.770588,0.83273 -0.620627,0.30952 -1.377999,0.23766 -1.928975,-0.18484 z"
         id="path3232-0"
         inkscape:connector-curvature="0" />
      <path
         style="fill:none;stroke:#000000;stroke-width:0;stroke-linecap:round;stroke-linejoin:round;stroke-miterlimit:10"
         d="m -36.431798,142.97982 c -0.343728,-0.33531 -0.533453,-0.81756 -0.452523,-1.29818 0.04102,-0.21931 -0.04094,-0.68477 0.204332,-0.3062 0.216013,0.32199 0.714309,0.30613 0.89132,0.62081 -0.0513,0.40319 -0.373648,0.73652 -0.587788,1.02811 z"
         id="path3235-7"
         inkscape:connector-curvature="0" />
      <path
         style="fill:none;stroke:#000000;stroke-width:0;stroke-linecap:round;stroke-linejoin:round;stroke-miterlimit:10"
         d="m -37.40364,140.59341 c 0.36368,-0.26154 0.357604,0.46796 0.45032,0.69156 -0.04304,0.43569 -0.09735,0.90464 0.127175,1.30637 0.02736,0.22363 0.562405,0.53878 0.351154,0.59365 -0.575601,-0.0109 -0.925526,-0.53236 -1.298489,-0.89423 -0.374267,-0.56165 -0.07987,-1.27911 0.36984,-1.69735 z"
         id="path3238-1"
         inkscape:connector-curvature="0" />
      <path
         style="fill:none;stroke:#000000;stroke-width:0;stroke-linecap:round;stroke-linejoin:round;stroke-miterlimit:10"
         d="m -37.306456,139.72955 c 0.297878,0.1931 0.535588,0.63817 0.01505,0.66858 -0.41516,0.17165 -0.622374,0.60637 -0.750684,1.00919 -0.383882,0.23272 -0.880198,0.0331 -1.204592,-0.22845 -0.377006,-0.21435 -0.61208,-0.61492 -0.209136,-0.93016 0.398625,-0.54094 1.109267,-0.97309 1.79317,-0.75292 0.133957,0.051 0.253864,0.13416 0.356189,0.23376 z"
         id="path3241-3"
         inkscape:connector-curvature="0" />
      <path
         style="fill:none;stroke:#000000;stroke-width:0;stroke-linecap:round;stroke-linejoin:round;stroke-miterlimit:10"
         d="m -38.073132,138.49855 c -0.106802,0.28896 0.39236,0.92937 -0.168386,0.78995 -0.06659,-0.27242 0.04695,-0.54923 0.168386,-0.78995 z"
         id="path3244-2"
         inkscape:connector-curvature="0" />
      <path
         style="fill:none;stroke:#000000;stroke-width:0;stroke-linecap:round;stroke-linejoin:round;stroke-miterlimit:10"
         d="m -36.60457,140.0427 c -0.312736,0.4514 -0.436539,-0.41218 -0.758029,-0.48881 -0.470367,-0.1075 -0.638273,-0.55011 -0.624231,-0.99943 -0.03346,-0.45522 0.413639,-0.67544 0.703826,-0.93293 0.259485,0.10163 0.423705,0.42934 0.635241,0.62866 0.407772,0.49924 0.463573,1.28274 0.04319,1.79251 z"
         id="path3247-2"
         inkscape:connector-curvature="0" />
      <path
         style="fill:none;stroke:#000000;stroke-width:0;stroke-linecap:round;stroke-linejoin:round;stroke-miterlimit:10"
         d="m -35.071219,138.06662 c -0.446699,0.44384 -0.182647,1.18332 -0.622629,1.62522 -0.217407,0.23687 -0.5207,0.409 -0.845933,0.42644 0.321342,-0.38102 0.336093,-0.90203 0.302351,-1.36058 0.257387,-0.40105 0.714477,-0.60168 1.166211,-0.69108 z"
         id="path3250-8"
         inkscape:connector-curvature="0" />
      <path
         style="fill:#d2aa5c;stroke-width:0.11641961"
         d="m -34.855254,138.09901 c -0.339471,-0.34137 -0.981752,0.0896 -1.283312,0.36939 -0.245266,0.36715 -0.304113,-0.38489 -0.551726,-0.47736 -0.226982,-0.20626 -0.520544,-0.81182 -0.802772,-0.32328 -0.531071,0.37391 -0.913136,0.98151 -0.947545,1.63762 -0.348576,0.28121 -0.845576,0.42284 -1.079488,0.8453 -0.235389,0.27952 -0.412109,0.66158 -0.0086,0.88918 0.350955,0.38188 0.865386,0.64839 1.394776,0.5669 0.154052,0.38159 0.277335,0.86203 0.634397,1.15035 0.318566,0.2718 0.824034,0.62718 1.229144,0.4736 0.0642,-0.5195 0.66848,-0.81714 0.605209,-1.37391 0.57795,0.0925 1.217371,-0.0354 1.620852,-0.48597 0.210354,-0.28104 0.74012,-0.73652 0.571192,-1.05818 -0.344532,-0.23495 -0.987739,-0.24369 -1.226216,-0.32232 0.401891,-0.41763 0.32827,-1.09327 -0.0018,-1.52983 -0.06346,-0.11486 -0.114535,-0.23644 -0.154165,-0.36149 z m -0.291553,2.06247 c -0.289596,0.26369 -0.993137,0.25512 -1.123867,0.0313 0.514414,-0.19615 0.95244,-0.66604 0.951096,-1.24074 0.0543,-0.23183 0.09082,-0.8238 0.394135,-0.75992 0.159461,0.41895 0.429689,0.85809 0.269957,1.32143 -0.07739,0.26689 -0.258729,0.4979 -0.491321,0.64789 z m 0.31315,0.75588 c -0.253613,-0.0875 -0.798595,-0.33842 -0.781207,-0.47661 0.401772,-0.0915 0.755362,-0.35249 1.192215,-0.25515 0.304945,8.2e-4 1.171097,0.15299 0.61622,0.52588 -0.291434,0.20131 -0.679921,0.31334 -1.027228,0.20588 z m -1.60894,0.52911 c -0.315621,-0.21894 -0.7364,-0.67583 -0.524051,-1.05975 0.563632,-0.19618 1.162223,0.0518 1.622003,0.38207 0.474508,0.30817 1.124537,0.36498 1.601611,0.0298 -0.05478,0.16211 -0.416091,0.72274 -0.770588,0.83273 -0.620627,0.30952 -1.377999,0.23766 -1.928975,-0.18484 z m 0.0108,1.53335 c -0.343728,-0.33531 -0.533453,-0.81756 -0.452523,-1.29818 0.04102,-0.21931 -0.04094,-0.68477 0.204332,-0.3062 0.216013,0.32199 0.714309,0.30613 0.89132,0.62081 -0.0513,0.40319 -0.373648,0.73652 -0.587788,1.02811 z m -0.971842,-2.38641 c 0.363681,-0.26154 0.357605,0.46796 0.45032,0.69156 -0.04304,0.43569 -0.09735,0.90464 0.127176,1.30637 0.02736,0.22363 0.562405,0.53878 0.351153,0.59365 -0.5756,-0.0109 -0.925525,-0.53236 -1.298489,-0.89423 -0.374266,-0.56165 -0.07987,-1.27911 0.36984,-1.69735 z m 0.09718,-0.86386 c 0.297879,0.1931 0.535589,0.63817 0.01505,0.66858 -0.415159,0.17165 -0.622373,0.60637 -0.750683,1.00919 -0.383883,0.23272 -0.880198,0.0331 -1.204593,-0.22845 -0.377005,-0.21435 -0.61208,-0.61492 -0.209135,-0.93016 0.398624,-0.54094 1.109266,-0.97309 1.793169,-0.75292 0.133958,0.051 0.253865,0.13416 0.356189,0.23376 z m -0.766676,-1.231 c -0.106802,0.28896 0.39236,0.92937 -0.168385,0.78995 -0.06659,-0.27242 0.04695,-0.54923 0.168385,-0.78995 z m 1.468562,1.54415 c -0.312735,0.4514 -0.436538,-0.41218 -0.758028,-0.48881 -0.470368,-0.1075 -0.638274,-0.55011 -0.624232,-0.99943 -0.03346,-0.45522 0.413639,-0.67544 0.703827,-0.93293 0.259485,0.10163 0.423704,0.42934 0.63524,0.62866 0.407773,0.49924 0.463573,1.28274 0.04319,1.79251 z m 1.533352,-1.97608 c -0.446699,0.44384 -0.182647,1.18332 -0.62263,1.62522 -0.217406,0.23687 -0.5207,0.409 -0.845932,0.42644 0.321342,-0.38102 0.336092,-0.90203 0.302351,-1.36058 0.257387,-0.40105 0.714477,-0.60168 1.166211,-0.69108 z"
         id="path3253-1"
         inkscape:connector-curvature="0" />
      <path
         transform="matrix(0.39866962,0.08733127,-0.08733127,0.39866962,28.698525,60.255309)"
         clip-path="url(#clipPath4681-68)"
         d="m -122.12528,247.06449 a 28.731522,27.929626 0 0 1 24.413484,-31.5724 28.731522,27.929626 0 0 1 32.480428,23.73011 28.731522,27.929626 0 0 1 -24.409371,31.5754 28.731522,27.929626 0 0 1 -32.483521,-23.7261"
         sodipodi:open="true"
         sodipodi:end="3.0005435"
         sodipodi:start="3.0007969"
         sodipodi:ry="27.929626"
         sodipodi:rx="28.731522"
         sodipodi:cy="243.1451"
         sodipodi:cx="-93.67807"
         sodipodi:type="arc"
         id="path4677-8"
         style="opacity:1;fill:none;fill-opacity:1;fill-rule:nonzero;stroke:#202020;stroke-width:0.39878836;stroke-linecap:butt;stroke-linejoin:round;stroke-miterlimit:4;stroke-dasharray:none;stroke-opacity:1" />
      <path
         style="opacity:1;fill:none;fill-opacity:1;fill-rule:nonzero;stroke:#202020;stroke-width:0.37298164;stroke-linecap:butt;stroke-linejoin:round;stroke-miterlimit:4;stroke-dasharray:none;stroke-opacity:1"
         id="path4685-51"
         sodipodi:type="arc"
         sodipodi:cx="-93.67807"
         sodipodi:cy="243.1451"
         sodipodi:rx="28.731522"
         sodipodi:ry="27.929626"
         sodipodi:start="3.0007969"
         sodipodi:end="2.9973347"
         sodipodi:open="true"
         d="m -122.12528,247.06449 a 28.731522,27.929626 0 0 1 24.390665,-31.56924 28.731522,27.929626 0 0 1 32.496736,23.68259 28.731522,27.929626 0 0 1 -24.334413,31.61024 28.731522,27.929626 0 0 1 -32.538858,-23.62787"
         clip-path="url(#clipPath4681-68)"
         transform="matrix(0.37036925,-0.05153155,0.05152948,0.37036449,-7.7159352,53.91105)" />
      <g
         id="text1195"
         style="font-style:normal;font-variant:normal;font-weight:normal;font-stretch:normal;font-size:7.11394644px;line-height:1.25;font-family:'Great Vibes';-inkscape-font-specification:'Great Vibes, Normal';font-variant-ligatures:normal;font-variant-caps:normal;font-variant-numeric:normal;font-feature-settings:normal;text-align:start;letter-spacing:0.32346219px;word-spacing:0px;writing-mode:lr-tb;text-anchor:start;opacity:1;vector-effect:none;fill:#202020;fill-opacity:1;stroke:none;stroke-width:0.15023477;stroke-linecap:butt;stroke-linejoin:miter;stroke-miterlimit:4;stroke-dasharray:none;stroke-dashoffset:0;stroke-opacity:1"
         transform="scale(0.92123055,1.0855046)"
         aria-label="Svadbeni">
        <path
           id="path1347"
           style="font-style:normal;font-variant:normal;font-weight:normal;font-stretch:normal;font-size:7.11394644px;font-family:'Great Vibes';-inkscape-font-specification:'Great Vibes, Normal';font-variant-ligatures:normal;font-variant-caps:normal;font-variant-numeric:normal;font-feature-settings:normal;text-align:start;letter-spacing:0.32346219px;writing-mode:lr-tb;text-anchor:start;fill:#202020;fill-opacity:1;stroke-width:0.15023477"
           d="m -38.052202,133.30132 c 0.441065,-0.36281 0.27033,-0.94615 -0.23476,-1.19514 -0.512204,-0.2561 -1.572182,-0.21342 -2.283577,0.0356 -1.038636,0.36992 -1.686005,1.42279 -0.626027,2.12707 0.533546,0.3557 1.486814,0.6118 1.927879,0.9675 0.860788,0.69716 0.355697,1.92076 -0.839446,2.54679 -1.422789,0.73985 -3.976696,0.55489 -3.962468,-1.20937 0.0071,-0.4553 0.142279,-0.93193 0.398381,-1.33031 0.128051,-0.20631 0.298786,-0.38415 0.490863,-0.53355 0.23476,-0.17785 0.02846,-0.14939 -0.07114,-0.10671 -0.697167,0.32725 -1.252055,1.29474 -1.216485,1.97057 0.120937,2.00613 3.151479,2.20532 4.75923,1.24494 1.202257,-0.71851 2.155526,-2.05593 0.704281,-2.95229 -0.526432,-0.32724 -1.244941,-0.57623 -1.678891,-0.83945 -0.960383,-0.59045 -0.462407,-1.38722 0.384153,-1.69312 2.290691,-0.8181 2.696186,0.94616 1.806942,1.05287 -0.23476,0.0285 -0.227646,0.19208 -0.03557,0.14228 0.206304,-0.0569 0.362811,-0.13517 0.476634,-0.22765 z"
           inkscape:connector-curvature="0" />
        <path
           id="path1349"
           style="font-style:normal;font-variant:normal;font-weight:normal;font-stretch:normal;font-size:7.11394644px;font-family:'Great Vibes';-inkscape-font-specification:'Great Vibes, Normal';font-variant-ligatures:normal;font-variant-caps:normal;font-variant-numeric:normal;font-feature-settings:normal;text-align:start;letter-spacing:0.32346219px;writing-mode:lr-tb;text-anchor:start;fill:#202020;fill-opacity:1;stroke-width:0.15023477"
           d="m -35.449498,135.33591 c 0.135165,-0.31301 -0.405495,-0.31301 -0.604686,0.32013 -0.06403,0.19207 -0.04268,0.49086 0.05691,0.71139 -0.284558,0.70428 -0.668711,1.30185 -1.010181,1.15246 -0.184962,-0.0854 -0.0071,-0.6118 0.170735,-1.08132 0.09248,-0.23476 0.199191,-0.62603 0.206305,-0.86079 0.01423,-0.34858 -0.0498,-0.31301 -0.256103,-0.29167 -0.05691,0.007 -0.348583,0.0569 -0.348583,0.0569 0.192077,0.0498 0.120937,0.60469 -0.02134,0.88213 l -0.128051,0.24188 c -0.04268,0.0996 0.0498,0.14228 0.128051,0.0213 -0.19919,0.54777 -0.377039,1.18803 0.0498,1.2734 0.981724,0.19919 1.579296,-1.87809 1.742917,-2.39029 0,-0.0142 0.0071,-0.0285 0.01423,-0.0356 z"
           inkscape:connector-curvature="0" />
        <path
           id="path1351"
           style="font-style:normal;font-variant:normal;font-weight:normal;font-stretch:normal;font-size:7.11394644px;font-family:'Great Vibes';-inkscape-font-specification:'Great Vibes, Normal';font-variant-ligatures:normal;font-variant-caps:normal;font-variant-numeric:normal;font-feature-settings:normal;text-align:start;letter-spacing:0.32346219px;writing-mode:lr-tb;text-anchor:start;fill:#202020;fill-opacity:1;stroke-width:0.15023477"
           d="m -32.545674,136.41723 c 0.07114,-0.14228 -0.03557,-0.18496 -0.0996,-0.0569 -0.149393,0.3059 -0.618914,1.20937 -0.917699,1.19514 -0.09248,0 -0.128052,-0.13516 -0.07114,-0.42684 0.09248,-0.43395 0.512204,-1.18091 0.661597,-1.3303 -0.0996,0.0213 -0.206304,-0.0213 -0.298786,-0.0285 -0.227646,-0.0142 -0.327241,0.15651 -0.483748,0.45529 -0.184963,0.34859 -0.384153,0.69717 -0.633141,0.99596 -0.334356,0.39838 -0.725623,0.45529 -0.654483,-0.0427 0.04268,-0.27033 0.23476,-0.61891 0.291671,-0.71851 0.256103,-0.41972 0.626028,-0.83944 0.946155,-1.01729 0.263216,-0.14228 0.526432,-0.0854 0.604686,0.17785 0.120937,0.0213 0.177848,-0.0996 0.07825,-0.20631 -0.405495,-0.44106 -1.223599,-0.17784 -1.650435,0.32725 -1.074206,1.28762 -0.533546,2.53256 0.284557,1.75003 0.206305,-0.19919 0.398381,-0.48375 0.512205,-0.66871 -0.213419,0.74696 0.120937,0.93192 0.355697,0.91769 0.426837,-0.0356 0.860787,-0.88924 1.074206,-1.32319 z"
           inkscape:connector-curvature="0" />
        <path
           id="path1353"
           style="font-style:normal;font-variant:normal;font-weight:normal;font-stretch:normal;font-size:7.11394644px;font-family:'Great Vibes';-inkscape-font-specification:'Great Vibes, Normal';font-variant-ligatures:normal;font-variant-caps:normal;font-variant-numeric:normal;font-feature-settings:normal;text-align:start;letter-spacing:0.32346219px;writing-mode:lr-tb;text-anchor:start;fill:#202020;fill-opacity:1;stroke-width:0.15023477"
           d="m -28.803183,133.30132 c -0.106709,0.0142 -0.213419,-0.0213 -0.3059,-0.0284 -0.227646,-0.0214 -0.348583,0.0498 -0.483748,0.36992 -0.170735,0.38415 -0.483749,1.03864 -0.825218,1.68601 -0.512204,-0.29879 -1.131117,-0.0498 -1.529498,0.41261 -0.519319,0.62602 -0.910586,1.77137 -0.241875,1.95633 0.490863,0.12805 0.825218,-0.44106 1.038637,-0.78965 -0.07114,0.29167 -0.01423,0.50509 0.06402,0.62603 0.09248,0.13516 0.206305,0.19208 0.320128,0.19208 0.569115,0 0.981724,-0.92482 1.152459,-1.3232 0.06403,-0.14228 -0.0498,-0.17073 -0.106709,-0.0427 -0.149393,0.29878 -0.562002,1.18091 -0.917699,1.18091 -0.334356,0 -0.113823,-0.59757 -0.04268,-0.76119 0.412609,-0.98172 1.664663,-3.27953 1.878082,-3.47872 z m -1.671778,2.1413 c -0.334355,0.62603 -0.690052,1.23783 -0.953268,1.60775 -0.604686,0.85367 -1.031523,0.41261 -0.562002,-0.46952 0.377039,-0.69717 1.159573,-1.48681 1.51527,-1.13823 z"
           inkscape:connector-curvature="0" />
        <path
           id="path1355"
           style="font-style:normal;font-variant:normal;font-weight:normal;font-stretch:normal;font-size:7.11394644px;font-family:'Great Vibes';-inkscape-font-specification:'Great Vibes, Normal';font-variant-ligatures:normal;font-variant-caps:normal;font-variant-numeric:normal;font-feature-settings:normal;text-align:start;letter-spacing:0.32346219px;writing-mode:lr-tb;text-anchor:start;fill:#202020;fill-opacity:1;stroke-width:0.15023477"
           d="m -27.930613,133.67836 c -0.611799,0.91059 -1.55084,3.03766 -2.034589,3.67791 -0.04268,0.064 0,0.14228 0.05691,0.0925 0.142279,-0.13516 0.426837,-0.64737 0.754078,-1.26628 -0.142279,0.29167 -0.256102,0.562 -0.313013,0.78253 -0.128051,0.51221 0.170734,0.93193 0.981724,0.7114 0.597572,-0.15651 1.031522,-0.83233 1.159573,-1.4299 0.09248,-0.4553 -0.0498,-0.92482 -0.569115,-1.00307 -0.320128,-0.0498 -0.313014,0.16362 -0.0996,0.14228 0.448179,-0.0427 0.455293,0.41261 0.27033,0.88213 -0.120937,0.28456 -0.334355,0.64737 -0.533546,0.88213 -0.248988,0.29878 -0.448178,0.44106 -0.611799,0.40549 -0.483748,-0.0996 -0.177849,-1.10266 0.184963,-1.82117 0.476634,-0.94615 1.308966,-2.10573 1.565068,-2.37606 -0.0996,0.0214 -0.206305,-0.0213 -0.298786,-0.0284 h -0.03557 c -0.156506,-0.007 -0.305899,0.0996 -0.476634,0.34858 z"
           inkscape:connector-curvature="0" />
        <path
           id="path1357"
           style="font-style:normal;font-variant:normal;font-weight:normal;font-stretch:normal;font-size:7.11394644px;font-family:'Great Vibes';-inkscape-font-specification:'Great Vibes, Normal';font-variant-ligatures:normal;font-variant-caps:normal;font-variant-numeric:normal;font-feature-settings:normal;text-align:start;letter-spacing:0.32346219px;writing-mode:lr-tb;text-anchor:start;fill:#202020;fill-opacity:1;stroke-width:0.15023477"
           d="m -24.749457,136.39589 c 0.07114,-0.14939 -0.07114,-0.13517 -0.128051,-0.007 -0.163621,0.37704 -0.547774,1.21649 -1.173801,1.21649 -0.469521,0 -0.348584,-0.71851 -0.241874,-0.97461 0.192076,0 0.654483,-0.14939 0.875015,-0.31302 0.455293,-0.34858 0.661597,-0.83233 0.391267,-1.03863 -0.313014,-0.23476 -0.853674,0.0356 -1.216485,0.46241 -0.313013,0.36992 -0.554888,0.90347 -0.547774,1.3303 0.0071,0.44818 0.327242,0.68294 0.682939,0.68294 0.789648,0 1.095548,-0.78965 1.358764,-1.35876 z m -0.739851,-0.19919 c -0.256102,0.21342 -0.626027,0.31301 -0.754078,0.31301 0.06403,-0.12805 0.241874,-0.44106 0.426837,-0.66871 0.875015,-1.05998 0.910585,-0.13516 0.327241,0.3557 z"
           inkscape:connector-curvature="0" />
        <path
           id="path1359"
           style="font-style:normal;font-variant:normal;font-weight:normal;font-stretch:normal;font-size:7.11394644px;font-family:'Great Vibes';-inkscape-font-specification:'Great Vibes, Normal';font-variant-ligatures:normal;font-variant-caps:normal;font-variant-numeric:normal;font-feature-settings:normal;text-align:start;letter-spacing:0.32346219px;writing-mode:lr-tb;text-anchor:start;fill:#202020;fill-opacity:1;stroke-width:0.15023477"
           d="m -22.049268,136.41723 c 0.07114,-0.14228 -0.04268,-0.19208 -0.0996,-0.064 -0.149392,0.29879 -0.604685,1.23072 -0.97461,1.23072 -0.09248,0 -0.170735,-0.064 -0.113823,-0.3557 0.09248,-0.49798 0.853673,-1.8354 0.853673,-1.8354 -0.241874,-0.0854 -0.97461,0.36281 -1.31608,0.66871 -0.220532,0.19208 -0.448178,0.46241 -0.590457,0.64026 0.256102,-0.51221 0.647369,-1.2236 0.860787,-1.33742 -0.0996,0.0213 -0.206304,-0.0214 -0.298786,-0.0285 -0.227646,-0.0142 -0.320127,0.10671 -0.50509,0.44818 -0.348583,0.64025 -0.640255,1.31608 -0.981724,1.9919 0.07114,-0.0427 0.135165,-0.0356 0.241874,-0.0427 0.149393,0 0.213418,-0.007 0.27033,-0.10671 0.398381,-0.78965 0.746964,-1.18803 0.988838,-1.40856 0.547774,-0.5122 0.675825,-0.32013 0.50509,-0.0427 -0.19919,0.32012 -0.334355,0.562 -0.391267,0.74696 -0.213418,0.6616 0.128051,0.83233 0.37704,0.83233 0.547773,0 0.960382,-0.90347 1.173801,-1.33742 z"
           inkscape:connector-curvature="0" />
        <path
           id="path1361"
           style="font-style:normal;font-variant:normal;font-weight:normal;font-stretch:normal;font-size:7.11394644px;font-family:'Great Vibes';-inkscape-font-specification:'Great Vibes, Normal';font-variant-ligatures:normal;font-variant-caps:normal;font-variant-numeric:normal;font-feature-settings:normal;text-align:start;letter-spacing:0.32346219px;writing-mode:lr-tb;text-anchor:start;fill:#202020;fill-opacity:1;stroke-width:0.15023477"
           d="m -20.723185,134.75257 c 0.02846,-0.16362 -0.08537,-0.29168 -0.248988,-0.29168 -0.156507,0 -0.313014,0.12806 -0.34147,0.29168 -0.02134,0.16362 0.08537,0.29167 0.248988,0.29167 0.163621,0 0.313014,-0.12805 0.34147,-0.29167 z m -1.003067,2.36894 c 0.01423,-0.0498 0.08537,-0.2063 0.08537,-0.2063 l 0.569115,-1.33031 c 0.07825,-0.17074 0.07825,-0.24899 -0.149392,-0.24899 l -0.391268,0.007 c 0.02846,0.0356 0.128052,0.16363 0.07114,0.29879 l -0.455293,1.15957 c -0.149392,0.36993 -0.149392,0.92482 0.384153,0.92482 0.526433,0 0.931927,-0.90347 1.11689,-1.30186 0.06403,-0.14227 -0.03557,-0.19207 -0.09248,-0.064 -0.199191,0.39838 -0.433951,0.83944 -0.668711,1.0742 -0.07825,0.0711 -0.213419,0.1494 -0.320128,0.13517 -0.19919,-0.0142 -0.213418,-0.21342 -0.149393,-0.44818 z"
           inkscape:connector-curvature="0" />
      </g>
    </g>
  </g>
</svg>
