<?xml version="1.0" encoding="UTF-8" standalone="no"?>
<!-- Created with Inkscape (http://www.inkscape.org/) -->

<svg
   xmlns:dc="http://purl.org/dc/elements/1.1/"
   xmlns:cc="http://creativecommons.org/ns#"
   xmlns:rdf="http://www.w3.org/1999/02/22-rdf-syntax-ns#"
   xmlns:svg="http://www.w3.org/2000/svg"
   xmlns="http://www.w3.org/2000/svg"
   xmlns:sodipodi="http://sodipodi.sourceforge.net/DTD/sodipodi-0.dtd"
   xmlns:inkscape="http://www.inkscape.org/namespaces/inkscape"
   width="53.043659mm"
   height="7.9695148mm"
   viewBox="0 0 53.043659 7.9695146"
   version="1.1"
   id="svg8"
   inkscape:version="0.92.4 (5da689c313, 2019-01-14)"
   sodipodi:docname="drawing.svg">
  <defs
     id="defs2" />
  <sodipodi:namedview
     id="base"
     pagecolor="#ffffff"
     bordercolor="#666666"
     borderopacity="1.0"
     inkscape:pageopacity="0.0"
     inkscape:pageshadow="2"
     inkscape:zoom="0.98994949"
     inkscape:cx="327.5732"
     inkscape:cy="-344.15907"
     inkscape:document-units="mm"
     inkscape:current-layer="layer1"
     showgrid="false"
     inkscape:window-width="1920"
     inkscape:window-height="976"
     inkscape:window-x="-8"
     inkscape:window-y="-8"
     inkscape:window-maximized="1" />
  <metadata
     id="metadata5">
    <rdf:RDF>
      <cc:Work
         rdf:about="">
        <dc:format>image/svg+xml</dc:format>
        <dc:type
           rdf:resource="http://purl.org/dc/dcmitype/StillImage" />
        <dc:title></dc:title>
      </cc:Work>
    </rdf:RDF>
  </metadata>
  <g
     inkscape:label="Layer 1"
     inkscape:groupmode="layer"
     id="layer1"
     transform="translate(-1.893802,-1.7334216)">
    <g
       id="g24"
       transform="matrix(0.3411862,0,0,0.38204769,-3.0615864,-7.4739277)"
       style="stroke-width:0.73283744">
      <path
         id="path10"
         d="m 37.148,30.316 q -1.036,0.42 -1.778,0.42 -0.742,0 -0.742,-0.308 0,-0.196 0.826,-0.224 0.826,-0.028 1.19,-0.196 1.064,-0.56 1.064,-1.652 0,-0.56 -0.308,-1.176 -0.896,-1.596 -4.34,-1.596 -1.988,0 -3.976,0.602 -1.988,0.602 -3.332,1.848 -1.344,1.246 -1.344,2.31 0,1.624 3.22,2.38 l 3.304,0.616 q 1.988,0.364 2.968,1.008 1.288,0.784 1.288,2.24 0,0.588 -0.196,1.26 -0.896,3.024 -4.62,4.62 -3.108,1.372 -7.336,1.372 -1.204,0 -2.1,-0.112 0.896,0.504 2.352,0.868 0.112,0.028 0.112,0.112 0,0.252 -0.588,0.252 -1.148,0 -2.856,-1.372 -2.324,-0.364 -3.472,-1.288 -0.728,-0.588 -1.344,-1.736 -0.616,-1.148 -0.616,-2.072 0,-0.924 0.364,-1.54 0.84,-1.484 2.128,-1.484 0.98,0 1.148,1.652 0.392,3.192 0.532,3.64 0.42,1.372 1.428,2.324 1.176,0.252 2.548,0.252 3.024,0 5.936,-1.204 2.912,-1.204 4.2,-3.416 0.532,-0.868 0.532,-1.54 0,-1.316 -2.324,-2.044 l -4.928,-1.12 q -1.512,-0.364 -2.422,-1.204 -0.91,-0.84 -0.91,-1.932 0,-1.68 2.1,-3.36 1.596,-1.288 3.906,-2.002 2.31,-0.714 4.536,-0.714 2.226,0 3.682,0.644 1.876,0.868 1.876,2.534 0,1.666 -1.708,2.338 z M 19.116,42.804 q -1.624,-1.792 -2.072,-4.9 -0.252,-1.764 -0.476,-1.764 -0.224,0 -0.42,0.126 -0.196,0.126 -0.392,0.546 -0.196,0.42 -0.196,1.092 0,2.156 1.512,3.696 0.756,0.784 2.044,1.204 z M 44.76876,31.296 q 0.84,0 1.428,0.56 0.588,0.56 0.588,1.568 0,2.212 -3.668,5.544 -3.108,2.8 -5.012,3.416 -0.308,0 -0.812,-0.336 -0.504,-0.336 -0.504,-0.616 0,-0.616 1.344,-4.172 1.344,-3.556 1.848,-3.976 0.112,-0.112 0.364,-0.112 0.252,0 0.532,0.266 0.28,0.266 0.308,0.63 0,0.028 -1.386,3.248 -1.386,3.22 -1.302,3.836 1.204,-0.364 4.298,-2.94 3.094,-2.576 3.094,-4.62 0,-1.232 -1.232,-1.792 -0.196,-0.084 -0.196,-0.252 0,-0.252 0.308,-0.252 z m 11.37276,2.632 0.392,-0.084 q 0.308,0 0.588,0.252 0.28,0.252 0.28,0.392 0,0.14 -1.736,2.702 -1.736,2.562 -1.736,3.57 0,0.084 0.028,0.168 0.14,0.644 0.616,0.644 1.456,0 5.32,-4.816 0.084,-0.112 0.196,-0.112 0.112,0 0.112,0.21 0,0.21 -0.252,0.546 -3.584,4.788 -5.46,4.788 -0.252,0 -0.476,-0.084 -1.232,-0.476 -1.232,-1.848 0,-0.476 0.112,-0.952 l -1.736,1.68 q -1.652,1.456 -2.394,1.456 -0.742,0 -1.414,-0.476 -0.756,-0.56 -0.756,-1.484 0,-2.044 2.856,-4.886 2.856,-2.842 5.236,-2.842 0.924,0 1.232,0.644 0.084,0.224 0.14,0.378 0.056,0.154 0.084,0.154 z m -8.372,6.888 q 0,1.008 0.7,1.008 1.624,0 4.424,-3.556 l 2.968,-4.088 q -0.224,-0.392 -0.728,-0.392 -1.708,0 -4.536,2.646 -2.828,2.646 -2.828,4.382 z m 21.03276,-7 q 3.136,-5.096 4.368,-5.096 0.196,0 0.546,0.126 0.35,0.126 0.35,0.378 0,0.14 -0.14,0.364 -2.24,2.744 -3.332,4.116 -3.304,4.172 -3.64,5.992 -0.084,0.392 -0.084,0.784 0,1.26 1.036,1.26 2.072,0 5.404,-3.836 0.28,-0.28 0.476,-0.322 0.196,-0.042 0.196,0.098 0,0.14 -0.168,0.336 -3.248,3.892 -5.768,4.34 -0.14,0.028 -0.392,0.028 -0.868,0 -1.302,-0.602 -0.434,-0.602 -0.434,-1.302 0,-0.784 0.308,-1.736 l -2.268,2.268 q -1.54,1.428 -2.422,1.428 -0.882,0 -1.47,-0.476 -0.7,-0.532 -0.7,-1.484 0,-2.044 2.856,-4.886 2.856,-2.842 5.236,-2.842 0.784,0 1.092,0.42 0.112,0.14 0.252,0.644 z m -8.26,7 q 0,1.008 0.7,1.008 1.204,0 4.004,-3.304 0.504,-0.588 3.36,-4.396 -0.196,-0.336 -0.672,-0.336 -1.736,0 -4.564,2.646 -2.828,2.646 -2.828,4.382 z m 19.77276,-5.488 q 0,-1.904 1.176,-1.904 0.112,0 0.252,0.028 0.476,0.084 0.476,0.728 0,0.644 -0.224,1.624 -0.224,0.728 -0.308,1.092 0.084,0.476 0.462,1.218 0.378,0.742 1.036,0.742 0.658,0 1.47,-0.896 0.168,-0.196 0.322,-0.196 0.154,0 0.168,0.182 0.014,0.182 -0.21,0.49 -0.868,1.036 -1.82,1.036 -1.372,0 -2.212,-2.016 -0.868,1.988 -2.464,3.43 -1.596,1.442 -3.164,1.442 -1.484,0 -1.484,-2.24 0,-1.764 3.29,-6.496 3.29,-4.732 5.026,-4.732 0.364,0 0.658,0.224 0.294,0.224 0.294,0.532 0,-0.028 -0.406,0.42 -0.406,0.448 -2.212,2.408 -1.806,1.96 -3.542,4.312 -1.736,2.352 -1.736,3.64 0,0.336 0.182,0.728 0.182,0.392 0.602,0.392 1.232,0 2.884,-1.904 1.372,-1.68 1.68,-2.828 -0.196,-0.588 -0.196,-1.456 z m 6.50076,7.336 q -0.308,0 -0.56,-0.084 -1.792,-0.504 -1.792,-2.016 0,-1.96 2.464,-4.536 2.464,-2.576 4.424,-2.576 0.644,0 1.05,0.35 0.406,0.35 0.406,0.854 0,1.568 -2.366,2.996 -2.366,1.428 -3.85,1.428 -0.224,0 -0.392,-0.056 -0.42,0.756 -0.42,1.596 0,1.456 1.386,1.456 1.386,0 3.598,-1.876 1.708,-1.372 2.912,-2.912 0.252,-0.336 0.434,-0.336 0.182,0 0.182,0.168 0,0.168 -0.224,0.476 -1.512,1.988 -3.64,3.528 -2.128,1.54 -3.612,1.54 z m 5.292,-8.064 q 0,-0.336 -0.714,-0.336 -0.714,0 -2.03,1.092 -1.764,1.456 -2.744,3.052 0.168,0.056 0.364,0.056 1.064,0 2.842,-1.134 1.778,-1.134 2.226,-2.478 0.056,-0.14 0.056,-0.252 z m 6.22076,-1.148 q 0.756,0 0.756,0.588 0,0.168 -0.084,0.336 -2.52,3.5 -3.024,5.292 6.524,-6.524 7.924,-6.524 0.14,-0.028 0.252,-0.028 0.784,0 0.784,0.7 0,0.14 -0.056,0.28 -0.056,0.14 -1.12,1.512 -1.232,1.456 -2.086,2.8 -0.854,1.344 -0.854,2.24 0,0.896 0.392,0.896 1.232,0 4.284,-3.388 0.056,-0.056 0.196,-0.252 0.42,-0.504 0.504,-0.504 0.084,0 0.084,0.28 0,0.28 -0.392,0.728 -3.472,3.948 -4.928,3.948 -1.372,0 -1.372,-1.512 0,-1.512 1.12,-3.472 l 1.792,-2.912 q -1.904,1.4 -3.388,3.066 -1.484,1.666 -2.702,3.234 -1.218,1.568 -1.414,1.568 -0.42,0 -0.658,-0.35 -0.238,-0.35 -0.238,-0.868 0,-0.518 0.364,-1.386 0.364,-0.868 0.924,-2.1 l -1.68,1.764 q -0.616,0.616 -0.77,0.616 -0.154,0 -0.154,-0.182 0,-0.182 0.224,-0.406 1.036,-1.036 1.792,-1.988 0.728,-0.952 2.996,-3.64 0.252,-0.336 0.532,-0.336 z m 14.88676,-2.31 q 0.378,0.266 0.378,0.63 0,0.364 -0.35,0.63 -0.35,0.266 -0.77,0.266 -0.42,0 -0.77,-0.308 -0.35,-0.308 -0.35,-0.7 0,-0.784 1.064,-0.784 0.42,0 0.798,0.266 z m -5.866,11.466 q -1.428,0 -1.428,-1.848 0,-1.512 1.652,-4.186 1.652,-2.674 2.66,-2.702 0.28,0 0.63,0.224 0.35,0.224 0.35,0.448 -0.14,0.196 -0.336,0.434 -0.196,0.238 -0.42,0.518 -0.224,0.28 -0.616,0.798 -0.392,0.518 -0.756,0.994 -2.1,2.716 -2.1,3.738 0,1.022 0.7,1.022 0.588,0 1.596,-0.644 2.352,-1.456 3.724,-3.192 0.504,-0.644 0.686,-0.644 0.182,0 0.182,0.224 0,0.224 -0.644,0.896 -0.644,0.672 -1.022,1.064 -0.378,0.392 -0.518,0.518 -0.14,0.126 -0.518,0.476 -0.378,0.35 -0.574,0.49 -0.196,0.14 -0.56,0.42 -0.364,0.28 -0.644,0.406 -0.28,0.126 -0.644,0.294 -0.588,0.252 -1.4,0.252 z"
         inkscape:connector-curvature="0"
         style="fill:#262626;stroke-width:0.73283744" />
      <path
         id="path12"
         d="m 134.05408,34.516 q -1.68,0 -2.828,-0.77 -1.148,-0.77 -1.148,-1.946 0,-1.484 1.932,-2.968 0.336,-0.252 0.504,-0.252 0.168,0 0.168,0.112 0,0.28 -0.448,0.448 -1.568,1.26 -1.568,2.548 0,0.924 0.84,1.554 0.84,0.63 2.1,0.63 2.744,0 5.18,-2.632 1.26,-1.372 1.26,-3.164 0,-1.792 -1.344,-2.66 -1.12,-0.784 -3.024,-0.784 -2.744,0 -5.516,1.372 -3.416,1.652 -6.174,5.138 -2.758,3.486 -2.758,6.706 0,2.548 1.736,3.934 1.736,1.386 4.312,1.386 2.94,0 5.768,-1.428 2.156,-1.12 3.724,-2.856 0.448,-0.504 0.7,-0.504 0.168,0 0.168,0.294 0,0.294 -0.308,0.602 -1.484,1.568 -4.284,3.024 -3.444,1.82 -6.93,1.82 -3.486,0 -5.194,-2.296 -1.148,-1.512 -1.148,-3.612 0,-0.924 0.224,-1.988 0.756,-3.584 3.976,-6.972 2.324,-2.436 5.516,-3.794 3.192,-1.358 6.048,-1.358 1.512,0 2.632,0.364 3.052,0.952 3.052,3.836 0,1.764 -1.036,3.052 -2.576,3.164 -6.132,3.164 z m 14.00476,-3.22 q 0.84,0 1.428,0.56 0.588,0.56 0.588,1.568 0,2.212 -3.668,5.544 -3.108,2.8 -5.012,3.416 -0.308,0 -0.812,-0.336 -0.504,-0.336 -0.504,-0.616 0,-0.616 1.344,-4.172 1.344,-3.556 1.848,-3.976 0.112,-0.112 0.364,-0.112 0.252,0 0.532,0.266 0.28,0.266 0.308,0.63 0,0.028 -1.386,3.248 -1.386,3.22 -1.302,3.836 1.204,-0.364 4.298,-2.94 3.094,-2.576 3.094,-4.62 0,-1.232 -1.232,-1.792 -0.196,-0.084 -0.196,-0.252 0,-0.252 0.308,-0.252 z m 3.50476,11.368 q -0.308,0 -0.56,-0.084 -1.792,-0.504 -1.792,-2.016 0,-1.96 2.464,-4.536 2.464,-2.576 4.424,-2.576 0.644,0 1.05,0.35 0.406,0.35 0.406,0.854 0,1.568 -2.366,2.996 -2.366,1.428 -3.85,1.428 -0.224,0 -0.392,-0.056 -0.42,0.756 -0.42,1.596 0,1.456 1.386,1.456 1.386,0 3.598,-1.876 1.708,-1.372 2.912,-2.912 0.252,-0.336 0.434,-0.336 0.182,0 0.182,0.168 0,0.168 -0.224,0.476 -1.512,1.988 -3.64,3.528 -2.128,1.54 -3.612,1.54 z m 5.292,-8.064 q 0,-0.336 -0.714,-0.336 -0.714,0 -2.03,1.092 -1.764,1.456 -2.744,3.052 0.168,0.056 0.364,0.056 1.064,0 2.842,-1.134 1.778,-1.134 2.226,-2.478 0.056,-0.14 0.056,-0.252 z m 9.02076,-1.316 4.032,-0.056 q 0.084,0.056 0.084,0.084 0,0.252 -3.486,0.7 -3.486,0.448 -3.766,0.532 -0.532,0.476 -1.96,2.842 -1.428,2.366 -1.428,3.458 0,1.036 1.428,1.036 0.672,0 1.764,-0.42 1.092,-0.42 1.68,-0.784 1.568,-0.98 3.36,-2.884 0.392,-0.392 0.532,-0.392 0.084,0 0.084,0.168 0,0.168 -0.42,0.672 -1.456,1.792 -3.276,2.884 -2.184,1.344 -4.172,1.344 -0.868,0 -1.414,-0.378 -0.546,-0.378 -0.546,-1.526 0,-1.148 1.008,-3.15 1.008,-2.002 1.54,-2.982 -0.392,0.084 -0.672,0.084 -0.812,0 -0.812,-0.644 0,-0.476 0.672,-0.672 0.084,0 0.252,-0.028 h 1.624 q 0.504,-0.644 1.148,-1.484 0.784,-1.008 1.064,-1.008 0.28,0 0.7,0.224 0.42,0.224 0.42,0.532 0,0.308 -1.344,1.82 0.728,0.028 1.904,0.028 z"
         inkscape:connector-curvature="0"
         style="fill:#d2aa5c;stroke-width:0.73283744" />
    </g>
  </g>
</svg>
