<?xml version="1.0" encoding="UTF-8" standalone="no"?>
<!-- Created with Inkscape (http://www.inkscape.org/) -->

<svg
   xmlns:osb="http://www.openswatchbook.org/uri/2009/osb"
   xmlns:dc="http://purl.org/dc/elements/1.1/"
   xmlns:cc="http://creativecommons.org/ns#"
   xmlns:rdf="http://www.w3.org/1999/02/22-rdf-syntax-ns#"
   xmlns:svg="http://www.w3.org/2000/svg"
   xmlns="http://www.w3.org/2000/svg"
   xmlns:sodipodi="http://sodipodi.sourceforge.net/DTD/sodipodi-0.dtd"
   xmlns:inkscape="http://www.inkscape.org/namespaces/inkscape"
   width="210mm"
   height="297mm"
   viewBox="0 0 210 297"
   version="1.1"
   id="svg8"
   inkscape:version="0.92.4 (5da689c313, 2019-01-14)"
   sodipodi:docname="drawing.svg">
  <defs
     id="defs2">
    <linearGradient
       id="linearGradient2316"
       osb:paint="solid">
      <stop
         style="stop-color:#1a1a1a;stop-opacity:1;"
         offset="0"
         id="stop2314" />
    </linearGradient>
    <linearGradient
       osb:paint="solid"
       id="linearGradient7164">
      <stop
         id="stop7162"
         offset="0"
         style="stop-color:#d2aa5c;stop-opacity:1;" />
    </linearGradient>
  </defs>
  <sodipodi:namedview
     id="base"
     pagecolor="#ffffff"
     bordercolor="#666666"
     borderopacity="1.0"
     inkscape:pageopacity="0.0"
     inkscape:pageshadow="2"
     inkscape:zoom="0.24748737"
     inkscape:cx="3393.8329"
     inkscape:cy="312.48034"
     inkscape:document-units="mm"
     inkscape:current-layer="layer1"
     showgrid="false"
     showborder="false"
     inkscape:window-width="1920"
     inkscape:window-height="976"
     inkscape:window-x="-8"
     inkscape:window-y="-8"
     inkscape:window-maximized="1" />
  <metadata
     id="metadata5">
    <rdf:RDF>
      <cc:Work
         rdf:about="">
        <dc:format>image/svg+xml</dc:format>
        <dc:type
           rdf:resource="http://purl.org/dc/dcmitype/StillImage" />
        <dc:title></dc:title>
      </cc:Work>
    </rdf:RDF>
  </metadata>
  <g
     inkscape:label="Layer 1"
     inkscape:groupmode="layer"
     id="layer1">
    <g
       id="g2391"
       transform="matrix(1.2083565,0,0,1.2265607,-187.9351,-102.16223)"
       style="stroke-width:0.82140625">
      <path
         inkscape:connector-curvature="0"
         id="path827"
         d="m 1021.9466,106.91578 a 52.282654,51.449713 0 0 1 -52.28263,51.44971 52.282654,51.449713 0 0 1 -52.28265,-51.44971 52.282654,51.449713 0 0 1 52.28265,-51.449709 52.282654,51.449713 0 0 1 52.28263,51.449709 z"
         style="opacity:1;fill:#262626;fill-opacity:1;stroke:#d2aa5c;stroke-width:7.53419256;stroke-linecap:round;stroke-linejoin:round;stroke-miterlimit:4;stroke-dasharray:none;stroke-dashoffset:0;stroke-opacity:1;paint-order:markers stroke fill" />
      <path
         style="fill:#cfa85a;stroke:#d2aa5c;stroke-width:0;stroke-miterlimit:4;stroke-dasharray:none;stroke-opacity:1"
         d="m 987.13088,146.44619 c -2.26099,-0.76024 -4.19042,-1.98794 -6.22365,-3.96002 -1.13998,-1.10565 -1.38188,-1.42373 -1.38188,-1.81704 0,-0.2622 0.0471,-0.52345 0.10514,-0.58055 0.0578,-0.057 0.54105,0.30935 1.07377,0.81433 2.57994,2.44561 5.67069,3.71602 9.41896,3.87158 2.25506,0.0936 3.54618,-0.0769 5.21911,-0.68901 4.90457,-1.7946 8.94057,-7.50113 10.48557,-14.82617 0.4632,-2.19538 0.9691,-6.50024 1.1032,-9.38549 0.054,-1.15754 0.1274,-2.19696 0.1635,-2.30984 0.047,-0.14504 0.2745,-0.0572 0.7774,0.29925 0.8247,0.58463 0.824,0.57968 0.5485,3.8034 -1.122,13.13104 -4.9327,21.21157 -11.39063,24.15382 -1.93385,0.88105 -2.764,1.02401 -5.9198,1.01955 -2.58763,-0.003 -2.91533,-0.0361 -3.97922,-0.39381 z m -37.54331,-1.94934 c -2.03925,-0.1954 -3.70217,-0.65952 -7.48376,-2.08879 -4.04517,-1.5289 -4.8938,-1.77297 -6.62208,-1.90454 -1.42078,-0.10822 -2.97051,0.26303 -3.99769,0.95755 l -0.58468,0.39529 -0.16687,-0.58514 c -0.0918,-0.32185 -0.20962,-0.84057 -0.26187,-1.15275 l -0.095,-0.5676 1.23239,-0.60163 c 1.10888,-0.54134 1.37622,-0.60693 2.66783,-0.6545 1.92954,-0.071 3.27699,0.26152 7.70806,1.90249 3.99359,1.47895 5.47378,1.88615 7.77249,2.13816 5.91897,0.64891 10.6958,-1.87351 14.48984,-7.65137 3.51615,-5.35463 5.00563,-12.35181 4.14832,-19.48807 -0.41648,-3.46694 -1.20891,-6.12378 -2.71467,-9.10161 -0.60184,-1.19028 -0.84403,-1.84206 -0.81048,-2.18135 0.0477,-0.47986 0.0548,-0.47485 0.87835,0.60617 1.52605,2.00307 2.93791,5.11138 3.59086,7.90558 l 0.22884,0.97935 -0.0716,-0.93538 c -0.20264,-2.64496 -0.26156,-10.65037 -0.0952,-12.939444 0.75883,-10.447217 3.19269,-18.418532 7.61865,-24.952401 2.02636,-2.991423 4.38508,-5.140027 7.00704,-6.382943 1.89051,-0.896158 3.23587,-1.202074 5.28822,-1.202457 2.99452,-6.11e-4 5.2029,0.717152 9.47789,3.080192 3.28265,1.814597 5.21645,1.934168 7.06735,0.437014 l 0.6988,-0.565279 0.4018,0.396628 0.4018,0.39663 -1.0307,2.859928 c -1.9744,5.478936 -4.8719,14.694656 -5.2566,16.718726 -0.1331,0.700446 -0.2266,0.761282 -0.6645,0.432556 -0.2903,-0.217884 -0.3875,-0.554646 -0.5925,-2.053447 -0.8292,-6.05942 -2.35056,-10.250331 -4.85429,-13.372101 -2.78913,-3.477666 -7.22409,-3.99826 -10.34431,-1.214252 -0.96225,0.858575 -2.35242,2.852948 -3.06174,4.392384 -1.58862,3.447922 -2.59597,7.86471 -3.24928,14.247293 -0.41338,4.038441 -0.4098,17.934493 0.006,21.747633 1.623,14.89831 5.99486,22.7806 12.6612,22.82761 4.75546,0.0335 8.27827,-3.72815 10.09402,-10.7784 0.5855,-2.27337 0.9214,-4.41538 1.2578,-8.02032 0.2396,-2.56763 0.4793,-3.25478 1.2017,-3.44405 1.4018,-0.36726 1.9468,0.89288 1.9209,4.44133 -0.046,6.20968 -1.7563,13.0729 -4.2422,17.01789 -0.9724,1.54316 -2.98435,3.53616 -4.38893,4.34749 -4.17529,2.4118 -10.03032,2.32324 -14.46891,-0.21888 -5.47781,-3.13733 -9.70502,-10.44617 -11.6661,-20.17064 -0.25072,-1.24328 -0.48034,-2.43588 -0.51026,-2.65025 -0.0298,-0.21436 -0.10309,0.90811 -0.1627,2.49436 -0.12232,3.25743 -0.40719,5.35075 -1.0773,7.91624 -1.64911,6.31363 -5.69213,12.04323 -10.28891,14.58087 -1.41001,0.77838 -3.55417,1.45324 -5.25539,1.65412 -1.55914,0.18409 -1.91878,0.18447 -3.80108,0.005 z m 20.41218,-27.77021 c -0.0506,-0.12436 -0.0878,-0.0875 -0.0953,0.0942 -0.007,0.16435 0.0304,0.25643 0.0829,0.20462 0.0525,-0.0518 0.0584,-0.18626 0.0125,-0.29881 z m -20.40134,23.24257 c -2.59337,-0.26631 -4.46523,-0.79139 -9.43279,-2.64597 -3.64646,-1.36135 -5.31064,-1.77691 -6.52657,-1.62971 -1.01151,0.12246 -2.25088,0.68689 -3.27413,1.49118 -0.89885,0.70645 -1.05353,0.64642 -1.05752,-0.41036 0,-0.4247 0.34164,-1.49055 1.02719,-3.1892 1.96316,-4.86474 3.7848,-10.69818 4.65982,-14.92189 0.33913,-1.63714 0.38615,-1.74945 0.69311,-1.6568 0.55083,0.16624 0.72411,0.38765 0.72411,0.92535 0,1.14374 0.80571,5.09921 1.40678,6.906 1.80286,5.41984 4.93168,8.80796 9.26033,10.02777 1.66301,0.46864 4.86092,0.5059 6.30988,0.0736 2.90467,-0.86673 5.23145,-3.10267 6.32579,-6.07867 0.65127,-1.77136 0.89086,-3.29717 0.89687,-5.71279 0.009,-3.58355 -0.75882,-6.44198 -2.38862,-8.8927 -2.16269,-3.25202 -5.05955,-4.94521 -12.63922,-7.38754 -3.82235,-1.23164 -6.14436,-2.51711 -8.15559,-4.51494 -1.30073,-1.29207 -1.88905,-2.10636 -2.73534,-3.785982 -1.55919,-3.094569 -2.24867,-6.693529 -2.24963,-11.742837 0,-3.170282 0.25721,-5.389801 0.90076,-7.753707 1.32999,-4.885801 4.32408,-8.91076 7.98079,-10.728586 3.99952,-1.988243 8.83057,-1.713685 15.40488,0.87548 2.65543,1.045773 3.7422,1.289527 4.77469,1.070936 0.7409,-0.156842 2.52972,-1.145953 2.7718,-1.53261 0.14157,-0.226148 0.41951,-0.20949 0.75984,0.04557 0.25846,0.193676 0.23677,0.291852 -0.33478,1.515039 -1.09245,2.337718 -1.77041,4.342954 -3.10772,9.191649 -1.41334,5.124332 -2.36772,8.188999 -2.59289,8.326372 -0.17158,0.104695 -0.19679,0.01986 -0.71675,-2.413195 -1.07302,-5.020415 -1.66758,-6.75213 -2.99517,-8.723432 -1.47286,-2.187071 -3.32675,-3.715344 -5.31301,-4.379936 -1.44849,-0.48465 -3.77122,-0.385337 -5.10704,0.218368 -1.89814,0.857843 -3.31626,2.276175 -4.38778,4.388611 -1.02812,2.026839 -1.49657,4.534167 -1.32694,7.102874 0.24863,3.765455 1.69076,6.674994 4.3376,8.751334 1.58243,1.24136 3.01139,1.922705 7.68264,3.663256 5.92123,2.206298 7.76993,3.257338 10.27509,5.841696 2.03167,2.09591 3.28158,4.1978 4.24905,7.14537 2.18595,6.65953 1.65358,15.65743 -1.26479,21.37804 -2.79211,5.47316 -6.66558,8.57878 -11.43514,9.16826 -1.47154,0.18187 -1.5736,0.1817 -3.3996,-0.006 z m 38.62222,-4.2155 c -4.00834,-2.26891 -6.7836,-9.81967 -8.01391,-21.80398 -0.35491,-3.45737 -0.40778,-16.356916 -0.0816,-19.954816 1.05234,-11.612558 3.68822,-17.664087 8.2959,-19.04565 2.29675,-0.688654 4.25437,-0.117545 6.19257,1.806633 1.57604,1.564617 2.2837,2.678463 2.2837,3.594632 v 0.723254 l -1.61877,-1.607952 c -2.16717,-2.15276 -2.93435,-2.54164 -5.0141,-2.54164 -1.36627,0 -1.57552,0.04114 -2.34198,0.460236 -2.6708,1.460465 -4.54483,5.33763 -5.54627,11.475022 -0.7592,4.652602 -0.86649,6.49203 -0.86792,14.879031 0,7.1511 0.0334,8.26438 0.34629,11.06921 1.17172,10.50912 3.42928,16.90693 6.96866,19.74914 0.67952,0.54567 0.80948,0.73319 0.80948,1.16809 0,0.66675 -0.27497,0.67235 -1.41197,0.0287 z m -42.46865,-1.79374 c -1.21813,-0.67935 -3.00892,-2.31609 -3.81131,-3.48349 -1.66626,-2.42426 -2.74438,-5.42629 -3.37381,-9.39428 l -0.21633,-1.36392 0.63246,-0.16809 c 0.76652,-0.20375 0.82758,-0.13435 0.96914,1.10091 0.16016,1.39736 0.97155,4.37878 1.60127,5.88393 0.98356,2.35094 1.8938,3.7085 3.6713,5.47531 1.39741,1.38908 1.62056,1.68067 1.57921,2.06355 l -0.0482,0.44589 z m 12.72825,-15.22033 c -1.81807,-2.83315 -3.46502,-3.87558 -9.82936,-6.22154 -8.7946,-3.24178 -11.50538,-4.86381 -12.87993,-7.70698 -0.43589,-0.90159 -1.04084,-3.12825 -0.89028,-3.27687 0.15373,-0.15178 1.55032,1.27752 1.97627,2.02255 0.66493,1.163 2.256,2.54418 3.91898,3.40195 0.77003,0.39716 3.27747,1.43494 5.57207,2.30615 8.7563,3.32454 10.93239,4.58369 12.27626,7.10326 0.70801,1.32743 1.21416,3.02006 0.98464,3.29303 -0.0983,0.11694 -0.22873,0.21263 -0.2898,0.21263 -0.0611,0 -0.43852,-0.51039 -0.83885,-1.13418 z M 944.93448,93.098422 c -1.86151,-1.565601 -3.04607,-3.383509 -3.65182,-5.604338 -0.47547,-1.74299 -0.47333,-5.211544 0.006,-6.984259 0.73738,-2.737042 2.27334,-4.84171 4.22184,-5.78507 0.86965,-0.421038 1.05626,-0.450811 2.82624,-0.450811 2.27133,0 3.20021,0.283552 4.84925,1.48028 1.68674,1.224066 3.04372,3.202765 3.83347,5.589731 0.25227,0.762421 0.25441,0.85544 0.025,1.082001 -0.13809,0.136324 -0.27765,0.216965 -0.31006,0.1792 -0.0322,-0.03778 -0.43608,-0.629899 -0.89693,-1.315846 -1.244,-1.85156 -3.13847,-3.638982 -4.62616,-4.364799 -1.53148,-0.747167 -3.03556,-0.90151 -4.46379,-0.458044 -1.79019,0.555847 -3.4829,2.606363 -4.08772,4.951716 -0.94335,3.658445 -0.0292,7.100438 2.81274,10.588117 0.73617,0.90358 0.759,0.960812 0.55273,1.384752 l -0.21526,0.442217 z m 57.51022,0.251446 c -0.8079,-0.586516 -0.8783,-0.110329 0.8033,-5.434938 1.141,-3.613213 5.2454,-15.20193 5.4776,-15.465808 0.052,-0.06047 0.3662,0.114909 0.6958,0.389745 l 0.5991,0.499691 -1.4879,4.053325 c -1.7951,4.889896 -3.4267,9.77572 -4.5292,13.563038 -0.4493,1.543381 -0.8335,2.822781 -0.8537,2.843117 -0.02,0.02033 -0.3374,-0.181345 -0.705,-0.44817 z m -41.60665,-4.58968 c -0.40318,-0.270462 -0.56839,-0.482864 -0.51389,-0.660879 0.0441,-0.144281 0.44252,-1.454941 0.88533,-2.912575 0.4428,-1.457635 1.73002,-5.40344 2.86045,-8.768454 2.24611,-6.686094 2.02561,-6.284962 3.00155,-5.459247 l 0.41706,0.352869 -0.69704,1.792816 c -0.73447,1.889084 -1.9429,5.536908 -3.91397,11.815068 -0.65379,2.082504 -1.24646,3.8882 -1.31706,4.012665 -0.10662,0.188058 -0.22867,0.158952 -0.72243,-0.172263 z"
         id="path830"
         inkscape:connector-curvature="0" />
    </g>
  </g>
</svg>
