<svg xmlns="http://www.w3.org/2000/svg" width="82.879" height="83.435" viewBox="0 0 21.928 22.076"><defs><clipPath id="a"><path transform="matrix(0.74299455,0.66929747,-0.69301371,0.7209244,0,0)" fill="none" stroke="#202020" stroke-width=".317" stroke-linejoin="round" d="M81.394 204.01h39.204v71.946H81.394z"/></clipPath></defs><g font-weight="400" font-size="7.715" font-family="Great Vibes" letter-spacing=".362" word-spacing="0" fill="#cfaa5c"><path style="line-height:1.25;-inkscape-font-specification:'Great Vibes, Normal';font-variant-ligatures:normal;font-variant-caps:normal;font-variant-numeric:normal;font-feature-settings:normal;text-align:start" d="M9.956 16.371c.069-.138-.028-.187-.083-.07-.29.596-.533 1.045-1.134 1.398a2.996 2.996 0 0 1-2.316.29c-1.798-.553-.664-3.353-.415-3.678.36.746.996 1.071 1.715 1.175 2.848.415 3.83-2.91 1.133-3.215-1.092-.124-2.129.304-2.876 1.265-.069-.373-.131-.878-.055-1.313.035-.194-.11-.152-.138-.035-.139.512-.083 1.155.027 1.583-.96 1.21-1.396 3.616.34 4.35 1.002.428 1.983.172 2.689-.312.587-.415.816-.83 1.113-1.438zm-1.037-3.837c2.019.29 1.403 3.063-1.093 2.786-.753-.083-1.369-.435-1.68-1.23.685-1.045 1.743-1.708 2.773-1.556z"/><path style="line-height:1.25;-inkscape-font-specification:'Great Vibes, Normal';font-variant-ligatures:normal;font-variant-caps:normal;font-variant-numeric:normal;font-feature-settings:normal;text-align:start" d="M12.015 15.313c.131-.304-.394-.304-.588.311-.062.187-.041.477.056.692-.277.684-.65 1.265-.982 1.12-.18-.083-.007-.595.166-1.051.09-.228.193-.609.2-.837.014-.339-.048-.304-.249-.283-.055.007-.339.055-.339.055.187.048.118.588-.02.857l-.125.236c-.041.096.049.138.125.02-.194.533-.367 1.155.048 1.238.954.193 1.535-1.825 1.694-2.323 0-.014.007-.028.014-.035zM14.135 16.343c.069-.145-.07-.131-.125-.007-.159.367-.532 1.183-1.14 1.183-.457 0-.34-.699-.236-.948.187 0 .636-.145.85-.304.443-.339.644-.809.381-1.01-.304-.227-.83.035-1.182.45-.304.36-.54.878-.533 1.293.007.436.318.664.664.664.768 0 1.065-.768 1.32-1.32zm-.72-.193c-.248.207-.608.304-.732.304.062-.124.235-.429.415-.65.85-1.03.885-.131.318.346zM16.057 15.009h-.332c.103-.194.2-.387.297-.595.512-1.106-.235-1.223-.712-.387-.173.297-.346.636-.505.982h-.415c-.076 0-.09.152-.013.152h.359c-.221.54-.477 1.293-.54 1.763-.103.76.582.878.955.519.256-.256.373-.443.677-1.079.07-.138-.034-.166-.09-.041-.186.373-.414.809-.732 1.044-.228.166-.547.103-.443-.36 0 0 .097-.525.16-.705a4.73 4.73 0 0 0 .919-1.14h.4c.07 0 .084-.153.015-.153zm-.139-.705c-.096.228-.214.47-.345.705h-.346c.173-.394.325-.774.49-1.01.43-.601.333.014.201.305zm-.435.857c-.2.332-.436.65-.699.92.097-.242.229-.581.374-.92z"/></g><path d="M20.246 18.23c-.918-.063-1.753.433-2.42 1.017.898.118 1.81-.397 2.42-1.017zM17.023 19.42c.414-.805.74-1.712.61-2.632-.656.713-.608 1.733-.61 2.633zM14.788 21.83c.473.086.956.073 1.428-.015.238.004.526.061.153-.11-.68-.378-1.509-.399-2.24-.165.183.162.42.254.659.29zM18.271 20.505c.241-.049.679-.368.611-.492-.437.165-.899.343-1.374.235-.594-.044-1.119.279-1.637.518.375.072.925-.038 1.366-.047a4.175 4.175 0 0 0 1.034-.214zM15.726 18.54c-.354.378-.836.622-1.176 1.007-.147.383-.244.786-.391 1.17.88-.38 1.296-1.318 1.567-2.177zM19.113 14.63c-.1.432-.218.86-.397 1.269-.195.525-.132 1.104.073 1.615.15.182.194-.455.274-.572.214-.749.287-1.559.05-2.312zM21.794 12.588c-.348.302-.517.802-.704 1.225-.054.218-.44.853-.027.48.426-.31.62-.825.694-1.328.014-.115.085-.276.037-.377zM20.642 14.408c.088-.684-.184-1.368-.532-1.945-.152.653-.143 1.477.47 1.899zM21.475 15.56c-.562.205-.959.668-1.298 1.139-.167.277-.728.658-.736.782.99-.132 1.69-1.048 2.034-1.922z" fill="none"/><path class="st0" d="M21.842 12.414c-.067-.02-.106.039-.135.078a3.821 3.821 0 0 0-.532.87c-.126.291-.252.591-.407.881-.02-.222-.048-.435-.067-.658-.03-.435-.233-.793-.455-1.132-.058-.087-.049-.271-.194-.242-.087.02-.058.184-.077.28-.087.368-.068.736-.02 1.114a.961.961 0 0 0 .349.629c.261.232.32.483.184.813-.262.638-.61 1.229-.997 1.8a8.064 8.064 0 0 1-.252.358c-.02.029-.038.087-.087.067-.058-.02-.029-.087-.02-.126.05-.212.098-.425.146-.638a3.84 3.84 0 0 0-.058-2.013c-.02-.058-.039-.107-.058-.155-.02-.039-.039-.077-.087-.068-.058.01-.049.058-.058.097-.04.6-.281 1.142-.475 1.703-.145.416-.077.833.068 1.239.126.348.068.648-.174.92a7.73 7.73 0 0 1-1.229 1.15c.087-.212.174-.435.261-.638.223-.503.28-1.045.29-1.587v-.61c0-.048-.01-.096-.067-.116-.058-.01-.087.03-.107.078-.135.435-.445.784-.56 1.238-.098.358-.078.726-.088 1.084-.01.271-.097.523-.155.784a.352.352 0 0 1-.164.232c-.784.513-1.616.93-2.497 1.249-.01 0-.03 0-.087-.01.251-.203.464-.397.706-.571.387-.29.668-.649.823-1.113.116-.339.242-.668.358-1.007.02-.058.068-.135-.01-.174-.058-.029-.097.039-.135.078-.28.329-.61.61-.968.842-.31.203-.445.493-.523.842-.067.31-.174.61-.358.87a1.018 1.018 0 0 1-.667.455c-.455.078-.91.175-1.365.194-.068 0-.155-.01-.164.068-.01.067.096.067.145.087.348.155.697.038 1.045-.03.184-.028.358-.086.532-.154.107-.039.203-.048.3.029.678.513 1.442.59 2.245.474.339-.048.678-.048.997.078.058.019.116.048.145-.02.03-.068-.048-.097-.087-.126-.522-.261-1.035-.542-1.616-.629-.329-.048-.658.02-.987.078-.184.029-.358.048-.552-.02.416-.135.804-.32 1.21-.484.155-.067.339.01.503.02.939.058 1.858.02 2.749-.3a1.35 1.35 0 0 0 .512-.32.574.574 0 0 0 .126-.174c.03-.058.049-.135-.01-.184-.048-.038-.106-.029-.164-.01-.029.01-.058.03-.087.04-.445.183-.91.27-1.403.193-.33-.049-.63.106-.93.242-.241.106-.483.212-.754.232.6-.339 1.17-.697 1.693-1.132a.239.239 0 0 1 .175-.059c.193 0 .387-.019.58-.019.455 0 .88-.116 1.268-.358a5.835 5.835 0 0 0 1.132-.88c.039-.04.107-.078.068-.136-.048-.068-.097-.01-.145.01a1.137 1.137 0 0 1-.397.097c-.716.038-1.364.27-1.897.764-.067.058-.135.136-.242.145.02-.077.068-.106.117-.154.193-.213.425-.407.59-.649.232-.348.551-.513.939-.62.841-.231 1.451-.754 1.829-1.548.096-.212.212-.416.319-.629.029-.048.048-.116 0-.154-.048-.03-.087.019-.116.058-.116.125-.261.193-.407.26a2.53 2.53 0 0 0-.842.727c-.174.222-.329.464-.542.658-.145.135-.28.3-.493.387.106-.232.261-.407.397-.6.377-.571.696-1.171.987-1.79.126-.262.28-.475.513-.64.329-.231.503-.55.59-.938.058-.27.116-.542.136-.813.01-.067.019-.135-.059-.164z" fill="none"/><path d="M14.459 19.798c.09-.478.62-.648.93-.962.16-.119.442-.456.265-.077-.267.79-.696 1.614-1.495 1.968.114-.305.212-.616.3-.929zM16.597 21.84c-.477-.09-.946.121-1.426.036-.309-.01-1.003-.136-.972-.359.802-.242 1.697-.152 2.398.323zM16.549 20.437c.412-.207.879-.229 1.326-.168.374-.004.716-.171 1.064-.287-.249.483-.85.58-1.329.686-.568.094-1.146.078-1.72.127.102-.17.461-.24.659-.358zM17.633 16.788c.132.92-.2 1.825-.61 2.633.003-.903-.047-1.917.61-2.633zM20.246 18.23c-.597.6-1.42 1.075-2.288 1.037-.287-.036.299-.316.403-.436.546-.39 1.204-.65 1.885-.6zM18.813 17.563c-.172-.485-.296-1.015-.137-1.522.156-.451.351-.89.427-1.365.16.183.194.95.144 1.346-.079.512-.168 1.134-.424 1.54zM20.4 16.401c.23-.343.767-.78 1.046-.79-.34.849-1.002 1.687-1.945 1.861-.344.054.292-.283.357-.429a4.99 4.99 0 0 0 .543-.642zM20.642 14.408c-.535-.33-.692-1.007-.588-1.592.022-.181.04-.502.166-.173.28.533.508 1.154.422 1.765zM21.813 12.676c-.076.543-.185 1.138-.622 1.519-.159.151-.477.403-.246.018.226-.558.423-1.16.833-1.614.052-.02.045.051.035.077z" fill="none"/><path d="M8.426.877C8.53.718 8.653.505 8.74.28c.102-.272.099-.263-.195-.24-.285.027-.515.225-.815.174-.018-.007-.036.019-.049.025-.217.1-.438.178-.686.217-.325.054-.6.206-.81.493a1.972 1.972 0 0 0-.367.877c-.032.214-.1.415-.248.58-.083.095-.187.131-.288.189-.064.04-.07.088-.05.146.022.059.055.08.123.062.502-.126 1.004-.222 1.47-.453a3.703 3.703 0 0 0 1.6-1.472zm.342-.773C8.34.89 7.94 1.653 7.132 2.074c.256-.301.413-.646.555-1.007.062-.153.127-.315.204-.452.179-.318.485-.439.877-.51zM6.19 1.144c.237-.339.53-.598.973-.612-.221.171-.335.418-.474.647-.132.211-.18.471-.33.675-.16.232-.387.39-.663.543.243-.419.236-.88.494-1.253zm-.155 1.398c-.236.063-.472.096-.708.16.074-.098.175-.126.28-.162.515-.224.883-.56 1.054-1.125.158-.529.502-.913 1.041-1.088A.401.401 0 0 1 7.95.319c-.203.33-.305.693-.454 1.041-.299.645-.793 1.02-1.461 1.182z" class="st2" fill="#d2aa5c" stroke="#d2aa5c" stroke-width=".057"/><path d="M1.19 4.933c-.147.244-.42.554-.376.826.37.054.703-.198 1.067-.159.318-.151.67-.184 1.006-.27.579-.212.878-.831.972-1.405.01-.384.478-.468.582-.734-.21-.159-.563.073-.825.08-.989.2-1.885.81-2.427 1.662zm-.368.764c.438-.73.895-1.535 1.703-1.906-.406.42-.547 1.004-.85 1.488-.194.275-.537.373-.853.418zm2.613-.948c-.177.316-.745.641-.955.54.372-.322.534-.806.781-1.218.141-.23.548-.515.693-.513-.223.376-.255.838-.52 1.19zm.212-1.394c.206-.026.603-.135.686-.105-.337.18-.729.296-.987.6-.364.357-.37.932-.76 1.269-.25.222-.585.442-.932.385.373-.584.5-1.351 1.107-1.765a2.28 2.28 0 0 1 .886-.384z" fill="#d2aa5c" stroke="#d2aa5c" stroke-width=".057"/><path d="M3.154 6.764c.058.28.076.691.296.859.315-.191.353-.618.662-.81.132-.337.362-.618.555-.918.27-.55.07-1.205-.247-1.69-.26-.287.034-.674-.085-.934-.259.034-.361.433-.547.617a3.814 3.814 0 0 0-.634 2.876zm.252.804c-.18-.836-.388-1.737-.058-2.565-.028.612.321 1.148.402 1.738.016.312-.155.594-.344.827zM4.664 5.09c.084.354-.104.98-.33 1.053.049-.49-.15-.956-.264-1.422-.052-.263.041-.749.15-.846.104.422.403.776.444 1.215zM3.87 3.94c.13-.158.338-.51.426-.538-.121.364-.329.718-.31 1.117-.02.508.362.934.309 1.447-.029.334-.124.718-.405.925-.114-.675-.555-1.302-.418-2.012.051-.34.2-.66.398-.94z" fill="#d2aa5c" stroke="#d2aa5c" stroke-width=".033"/><path d="M6.42.967c-.305-.306-.88.08-1.15.33-.22.33-.273-.344-.495-.427-.204-.185-.467-.727-.72-.29-.476.335-.818.88-.849 1.468-.312.252-.758.379-.967.758-.211.25-.37.592-.008.796.314.343.776.582 1.25.508.138.342.249.773.569 1.031.285.244.738.563 1.101.425.058-.466.6-.732.542-1.231.518.082 1.091-.032 1.453-.436.189-.252.663-.66.512-.948-.309-.21-.885-.219-1.099-.29.36-.373.294-.979-.002-1.37A1.785 1.785 0 0 1 6.42.967zm-.262 1.848c-.26.237-.89.229-1.007.028.46-.175.853-.597.852-1.112.049-.207.082-.738.353-.68.143.375.385.768.242 1.184a1.05 1.05 0 0 1-.44.58zm.28.678c-.227-.079-.715-.304-.7-.427.36-.082.678-.316 1.069-.23.273.002 1.05.138.552.472-.26.18-.61.281-.92.185zm-1.441.474c-.283-.196-.66-.606-.47-.95.505-.176 1.042.046 1.454.343.425.276 1.008.327 1.435.026-.049.145-.373.648-.69.747a1.65 1.65 0 0 1-1.73-.166zm.01 1.374c-.309-.3-.479-.733-.406-1.163.037-.197-.037-.614.183-.275.194.289.64.275.799.557-.046.36-.335.66-.527.92zm-.872-2.139c.326-.234.321.42.404.62-.039.39-.087.81.114 1.17.025.201.504.484.315.533-.516-.01-.83-.477-1.164-.802-.335-.503-.072-1.146.331-1.52zm.088-.774c.267.173.48.572.013.6-.372.153-.558.543-.673.904-.344.208-.789.03-1.08-.205-.337-.192-.548-.551-.187-.834.358-.484.994-.872 1.607-.674.12.045.228.12.32.21zm-.688-1.103c-.095.259.352.833-.15.708-.06-.244.042-.492.15-.708zm1.317 1.384c-.28.404-.392-.37-.68-.438-.421-.097-.572-.493-.56-.896-.03-.408.372-.605.632-.836.232.091.38.385.569.563.365.448.415 1.15.039 1.607zM6.226.938c-.4.398-.164 1.06-.558 1.456a1.138 1.138 0 0 1-.758.383c.288-.342.3-.809.27-1.22.231-.36.64-.54 1.046-.62z" fill="#d2aa5c" stroke="#d2aa5c" stroke-width=".08"/><path d="M-122.125 247.064a28.732 27.93 0 0 1 24.413-31.572 28.732 27.93 0 0 1 32.48 23.73 28.732 27.93 0 0 1-24.409 31.576 28.732 27.93 0 0 1-32.483-23.727" clip-path="url(#a)" transform="translate(38.300284,-114.92532) matrix(0.36575959,-5.2103075e-4,5.2103075e-4,0.36575959,6.4198519,37.045262)" fill="none" stroke="#202020" stroke-width=".399" stroke-linejoin="round"/><path d="M-122.125 247.064a28.732 27.93 0 0 1 24.39-31.569 28.732 27.93 0 0 1 32.497 23.683 28.732 27.93 0 0 1-24.334 31.61 28.732 27.93 0 0 1-32.54-23.628" clip-path="url(#a)" transform="translate(38.300284,-114.92532) matrix(0.32278195,-0.09010547,0.09010306,0.32277796,-19.387636,39.103941)" fill="none" stroke="#202020" stroke-width=".452" stroke-linejoin="round"/><g font-weight="400" font-size="7.114" font-family="Great Vibes" letter-spacing=".323" word-spacing="0" fill="#202020"><path style="line-height:1.25;-inkscape-font-specification:'Great Vibes, Normal';font-variant-ligatures:normal;font-variant-caps:normal;font-variant-numeric:normal;font-feature-settings:normal;text-align:start" d="M5.977 7.24c.364-.354.223-.921-.194-1.164-.423-.249-1.298-.207-1.885.035-.858.36-1.392 1.384-.517 2.07.44.345 1.227.594 1.591.94.711.679.294 1.87-.693 2.478-1.174.72-3.283.54-3.271-1.176.006-.443.117-.907.329-1.295.105-.2.246-.373.405-.519.194-.173.024-.145-.059-.103C1.108 8.824.65 9.766.68 10.423c.1 1.951 2.602 2.145 3.93 1.21.992-.698 1.779-2 .58-2.871-.434-.319-1.027-.561-1.385-.817-.793-.574-.382-1.35.317-1.647 1.89-.796 2.226.92 1.492 1.024-.194.028-.188.187-.03.139.17-.056.3-.132.394-.222zM8.126 9.218c.111-.304-.335-.304-.5.312a1.23 1.23 0 0 0 .047.692c-.235.685-.552 1.266-.834 1.121-.152-.083-.006-.595.141-1.052.077-.228.165-.609.17-.837.012-.34-.04-.305-.21-.284-.048.007-.289.055-.289.055.159.049.1.589-.017.859l-.106.235c-.035.097.041.138.106.02-.165.533-.312 1.156.04 1.24.811.193 1.305-1.828 1.44-2.326 0-.014.006-.028.012-.035zM10.523 10.27c.059-.138-.03-.18-.082-.055-.124.298-.511 1.176-.758 1.163-.076 0-.106-.132-.059-.416.077-.422.423-1.148.547-1.294-.083.02-.17-.02-.247-.027-.188-.014-.27.152-.4.442-.152.34-.317.679-.522.97-.276.387-.6.442-.54-.042.035-.263.193-.602.24-.7.212-.407.517-.816.781-.989.218-.138.435-.083.5.173.1.02.146-.097.064-.2-.335-.43-1.01-.174-1.362.318-.887 1.252-.44 2.464.235 1.702.17-.193.328-.47.422-.65-.176.726.1.906.294.893.352-.035.71-.866.887-1.288zM13.613 7.24c-.088.013-.176-.022-.253-.029-.188-.02-.288.049-.4.36-.14.374-.399 1.01-.68 1.64-.423-.29-.934-.048-1.263.402-.429.609-.752 1.723-.2 1.903.405.125.681-.429.858-.768-.06.284-.012.491.052.609.077.131.17.187.265.187.47 0 .81-.9.951-1.287.053-.139-.04-.167-.088-.042-.123.29-.464 1.149-.758 1.149-.276 0-.094-.581-.035-.74.34-.956 1.375-3.191 1.55-3.385zm-1.38 2.082c-.277.61-.57 1.204-.787 1.564-.5.83-.852.402-.464-.456.31-.679.957-1.447 1.25-1.108zM14.333 7.606c-.505.886-1.28 2.955-1.68 3.578-.035.062 0 .138.047.09.118-.132.353-.63.623-1.232a4.818 4.818 0 0 0-.258.761c-.106.499.14.907.81.692.493-.152.852-.81.957-1.39.077-.444-.04-.9-.47-.977-.264-.048-.258.16-.082.139.37-.042.376.401.223.858-.1.277-.276.63-.44.858-.206.29-.37.43-.505.395-.4-.097-.147-1.073.153-1.772.393-.92 1.08-2.049 1.292-2.312-.083.021-.17-.02-.247-.027h-.03c-.129-.007-.252.097-.393.339zM16.96 10.25c.058-.146-.06-.132-.106-.007-.135.366-.452 1.183-.97 1.183-.387 0-.287-.699-.199-.948.159 0 .54-.145.722-.305.376-.339.547-.81.323-1.01-.258-.228-.704.035-1.004.45-.258.36-.458.879-.452 1.294.006.436.27.664.564.664.652 0 .904-.768 1.122-1.321zm-.611-.194c-.212.207-.517.304-.623.304.053-.124.2-.429.353-.65.722-1.031.751-.132.27.346zM19.189 10.27c.059-.138-.035-.187-.082-.062-.124.29-.5 1.197-.805 1.197-.076 0-.141-.062-.094-.346.076-.484.705-1.785.705-1.785-.2-.083-.805.353-1.087.65-.182.187-.37.45-.487.623.211-.498.534-1.19.71-1.3-.082.02-.17-.022-.246-.029-.188-.013-.265.104-.417.436-.288.623-.529 1.28-.81 1.938.058-.041.11-.034.199-.041.123 0 .176-.007.223-.104.329-.768.617-1.156.816-1.37.453-.499.558-.312.417-.042-.164.311-.276.547-.323.727-.176.643.106.81.312.81.452 0 .793-.88.969-1.302zM20.284 8.65c.023-.158-.07-.283-.206-.283-.13 0-.258.125-.282.284-.017.16.07.284.206.284.135 0 .258-.125.282-.284zm-.828 2.305c.011-.048.07-.2.07-.2l.47-1.294c.064-.166.064-.243-.123-.243l-.324.007c.024.035.106.16.06.291l-.377 1.128c-.123.36-.123.9.317.9.435 0 .77-.88.923-1.267.052-.138-.03-.187-.077-.062-.164.388-.358.817-.552 1.045-.064.07-.176.145-.264.132-.165-.014-.176-.208-.123-.436z"/></g><g><path d="M21.842 12.414c-.067-.02-.106.039-.135.078a3.821 3.821 0 0 0-.532.87c-.126.291-.252.591-.407.881-.02-.222-.048-.435-.067-.658-.03-.435-.233-.793-.455-1.132-.058-.087-.049-.271-.194-.242-.087.02-.058.184-.077.28-.087.368-.068.736-.02 1.114a.961.961 0 0 0 .349.629c.261.232.32.483.184.813-.262.638-.61 1.229-.997 1.8a8.064 8.064 0 0 1-.252.358c-.02.029-.038.087-.087.067-.058-.02-.029-.087-.02-.126.05-.212.098-.425.146-.638a3.84 3.84 0 0 0-.058-2.013c-.02-.058-.039-.107-.058-.155-.02-.039-.039-.077-.087-.068-.058.01-.049.058-.058.097-.04.6-.281 1.142-.475 1.703-.145.416-.077.833.068 1.239.126.348.068.648-.174.92a7.73 7.73 0 0 1-1.229 1.15c.087-.212.174-.435.261-.638.223-.503.28-1.045.29-1.587v-.61c0-.048-.01-.096-.067-.116-.058-.01-.087.03-.107.078-.135.435-.445.784-.56 1.238-.098.358-.078.726-.088 1.084-.01.271-.097.523-.155.784a.352.352 0 0 1-.164.232c-.784.513-1.616.93-2.497 1.249-.01 0-.03 0-.087-.01.251-.203.464-.397.706-.571.387-.29.668-.649.823-1.113.116-.339.242-.668.358-1.007.02-.058.068-.135-.01-.174-.058-.029-.097.039-.135.078-.28.329-.61.61-.968.842-.31.203-.445.493-.523.842-.067.31-.174.61-.358.87a1.018 1.018 0 0 1-.667.455c-.455.078-.91.175-1.365.194-.068 0-.155-.01-.164.068-.01.067.096.067.145.087.348.155.697.038 1.045-.03.184-.028.358-.086.532-.154.107-.039.203-.048.3.029.678.513 1.442.59 2.245.474.339-.048.678-.048.997.078.058.019.116.048.145-.02.03-.068-.048-.097-.087-.126-.522-.261-1.035-.542-1.616-.629-.329-.048-.658.02-.987.078-.184.029-.358.048-.552-.02.416-.135.804-.32 1.21-.484.155-.067.339.01.503.02.939.058 1.858.02 2.749-.3a1.35 1.35 0 0 0 .512-.32.574.574 0 0 0 .126-.174c.03-.058.049-.135-.01-.184-.048-.038-.106-.029-.164-.01-.029.01-.058.03-.087.04-.445.183-.91.27-1.403.193-.33-.049-.63.106-.93.242-.241.106-.483.212-.754.232.6-.339 1.17-.697 1.693-1.132a.239.239 0 0 1 .175-.059c.193 0 .387-.019.58-.019.455 0 .88-.116 1.268-.358a5.835 5.835 0 0 0 1.132-.88c.039-.04.107-.078.068-.136-.048-.068-.097-.01-.145.01a1.137 1.137 0 0 1-.397.097c-.716.038-1.364.27-1.897.764-.067.058-.135.136-.242.145.02-.077.068-.106.117-.154.193-.213.425-.407.59-.649.232-.348.551-.513.939-.62.841-.231 1.451-.754 1.829-1.548.096-.212.212-.416.319-.629.029-.048.048-.116 0-.154-.048-.03-.087.019-.116.058-.116.125-.261.193-.407.26a2.53 2.53 0 0 0-.842.727c-.174.222-.329.464-.542.658-.145.135-.28.3-.493.387.106-.232.261-.407.397-.6.377-.571.696-1.171.987-1.79.126-.262.28-.475.513-.64.329-.231.503-.55.59-.938.058-.27.116-.542.136-.813.01-.067.019-.135-.059-.164zm-7.383 7.384c.038-.135.077-.28.193-.377.349-.29.716-.542 1.074-.88-.377 1.2-.851 1.857-1.567 2.186.116-.31.212-.62.3-.929zm2.138 2.042c-.232-.029-.406-.039-.58 0-.407.087-.823.048-1.23-.01a1.311 1.311 0 0 1-.667-.29c.842-.252 1.664-.223 2.477.3zm-.048-1.403c.348-.155.716-.242 1.103-.184.3.048.59-.02.88-.126.127-.048.252-.087.407-.145-.155.31-.406.416-.668.513-.774.29-1.587.232-2.38.3 0-.02-.01-.03-.01-.048.213-.097.436-.213.668-.31zm1.084-3.649c.126.94-.184 1.781-.61 2.633.01-.949-.058-1.878.61-2.633zm2.613 1.442c-.668.707-1.742 1.162-2.42 1.017.697-.59 1.442-1.075 2.42-1.017zm-1.433-.667c-.019-.078-.038-.155-.067-.233-.213-.56-.184-1.103.058-1.645a4.68 4.68 0 0 0 .213-.62c.038-.144.048-.3.106-.444.31 1.016.078 1.984-.252 2.942h-.058zm1.588-1.162a2.48 2.48 0 0 1 1.064-.842c-.406 1.094-1.297 1.907-2.12 1.926a4.86 4.86 0 0 0 1.056-1.084zm.241-1.993c-.696-.484-.677-1.18-.532-1.945.407.619.63 1.48.532 1.945zm1.171-1.732c0 .164-.067.319-.087.474-.087.551-.358.987-.88 1.306.184-.435.319-.851.522-1.238a3.15 3.15 0 0 1 .358-.571c.02-.02.039-.059.078-.049.029.01.01.049.01.078z" class="st2" fill="#cfaa5c"/><path d="M18.84 19.927c-.39.084-.768.26-1.18.217-.48-.027-.964.055-1.387.295-.147.107-.574.153-.439.393.232.105.53.027.787.037.776-.068 1.657-.082 2.277-.62.126-.087.14-.326-.057-.322zM19.991 18.114c-.689.026-1.32.342-1.862.748-.134.137-.464.237-.38.467.304.103.659.029.97-.044.596-.213 1.208-.516 1.599-1.022.013-.185-.207-.145-.327-.149zM21.38 15.483c-.592.222-.99.738-1.37 1.217-.2.278-.51.469-.698.747.074.249.399.08.576.036.787-.332 1.357-1.057 1.656-1.838.019-.094-.07-.183-.164-.162zM21.765 12.505c-.277.132-.37.48-.529.725-.166.375-.381.752-.444 1.16.075.246.342.048.437-.077.33-.301.53-.706.608-1.143.021-.203.173-.456.032-.638a.143.143 0 0 0-.104-.027zM20.107 12.414c-.221.111-.137.432-.179.637-.06.564.196 1.172.685 1.466.226-.084.122-.401.137-.598a3.635 3.635 0 0 0-.512-1.458.147.147 0 0 0-.131-.047zM19.09 14.646c-.211.13-.162.453-.272.65-.227.585-.44 1.256-.239 1.894.06.162.094.523.347.42.197-.245.21-.596.308-.89.145-.654.23-1.361.015-2.008a.145.145 0 0 0-.158-.066zM17.51 16.756c-.577.67-.593 1.606-.596 2.444-.032.206.263.265.315.064.33-.761.652-1.602.507-2.445a.133.133 0 0 0-.226-.063zM15.615 18.569c-.382.193-.711.494-1.024.786-.296.365-.378.852-.498 1.295.017.254.302.109.412.01.648-.46 1.062-1.19 1.263-1.947.006-.082-.072-.157-.153-.144zM15.014 21.287c-.307.022-.664.01-.922.192-.11.252.263.333.432.394.658.204 1.368.11 2.032.018.23-.197-.183-.305-.333-.374a2.666 2.666 0 0 0-1.21-.23z" fill="#cfaa5c" paint-order="markers stroke fill"/></g></svg>