<svg xmlns="http://www.w3.org/2000/svg" width="210" height="51"><path d="M37.1 30.3q-1 0.4-1.8 0.4t-0.7-0.3q0-0.2 0.8-0.2t1.2-0.2q1.1-0.6 1.1-1.7 0-0.6-0.3-1.2 -0.9-1.6-4.3-1.6 -2 0-4 0.6t-3.3 1.8 -1.3 2.3q0 1.6 3.2 2.4l3.3 0.6q2 0.4 3 1 1.3 0.8 1.3 2.2 0 0.6-0.2 1.3 -0.9 3-4.6 4.6 -3.1 1.4-7.3 1.4 -1.2 0-2.1-0.1 0.9 0.5 2.4 0.9 0.1 0 0.1 0.1 0 0.3-0.6 0.3 -1.1 0-2.9-1.4 -2.3-0.4-3.5-1.3 -0.7-0.6-1.3-1.7t-0.6-2.1 0.4-1.5q0.8-1.5 2.1-1.5 1 0 1.1 1.7 0.4 3.2 0.5 3.6 0.4 1.4 1.4 2.3 1.2 0.3 2.5 0.3 3 0 5.9-1.2t4.2-3.4q0.5-0.9 0.5-1.5 0-1.3-2.3-2l-4.9-1.1q-1.5-0.4-2.4-1.2t-0.9-1.9q0-1.7 2.1-3.4 1.6-1.3 3.9-2t4.5-0.7 3.7 0.6q1.9 0.9 1.9 2.5t-1.7 2.3zM19.1 42.8q-1.6-1.8-2.1-4.9 -0.3-1.8-0.5-1.8t-0.4 0.1 -0.4 0.5 -0.2 1.1q0 2.2 1.5 3.7 0.8 0.8 2 1.2zM44.8 31.3q0.8 0 1.4 0.6t0.6 1.6q0 2.2-3.7 5.5 -3.1 2.8-5 3.4 -0.3 0-0.8-0.3t-0.5-0.6q0-0.6 1.3-4.2t1.8-4q0.1-0.1 0.4-0.1t0.5 0.3 0.3 0.6q0 0-1.4 3.2t-1.3 3.8q1.2-0.4 4.3-2.9t3.1-4.6q0-1.2-1.2-1.8 -0.2-0.1-0.2-0.3 0-0.3 0.3-0.3zM56.1 33.9l0.4-0.1q0.3 0 0.6 0.3t0.3 0.4 -1.7 2.7 -1.7 3.6q0 0.1 0 0.2 0.1 0.6 0.6 0.6 1.5 0 5.3-4.8 0.1-0.1 0.2-0.1t0.1 0.2 -0.3 0.5q-3.6 4.8-5.5 4.8 -0.3 0-0.5-0.1 -1.2-0.5-1.2-1.8 0-0.5 0.1-1l-1.7 1.7q-1.7 1.5-2.4 1.5t-1.4-0.5q-0.8-0.6-0.8-1.5 0-2 2.9-4.9t5.2-2.8q0.9 0 1.2 0.6 0.1 0.2 0.1 0.4t0.1 0.2zM47.8 40.8q0 1 0.7 1 1.6 0 4.4-3.6l3-4.1q-0.2-0.4-0.7-0.4 -1.7 0-4.5 2.6t-2.8 4.4zM68.8 33.8q3.1-5.1 4.4-5.1 0.2 0 0.5 0.1t0.4 0.4q0 0.1-0.1 0.4 -2.2 2.7-3.3 4.1 -3.3 4.2-3.6 6 -0.1 0.4-0.1 0.8 0 1.3 1 1.3 2.1 0 5.4-3.8 0.3-0.3 0.5-0.3t0.2 0.1 -0.2 0.3q-3.2 3.9-5.8 4.3 -0.1 0-0.4 0 -0.9 0-1.3-0.6t-0.4-1.3q0-0.8 0.3-1.7l-2.3 2.3q-1.5 1.4-2.4 1.4t-1.5-0.5q-0.7-0.5-0.7-1.5 0-2 2.9-4.9t5.2-2.8q0.8 0 1.1 0.4 0.1 0.1 0.3 0.6zM60.5 40.8q0 1 0.7 1 1.2 0 4-3.3 0.5-0.6 3.4-4.4 -0.2-0.3-0.7-0.3 -1.7 0-4.6 2.6t-2.8 4.4zM80.3 35.3q0-1.9 1.2-1.9 0.1 0 0.3 0 0.5 0.1 0.5 0.7t-0.2 1.6q-0.2 0.7-0.3 1.1 0.1 0.5 0.5 1.2t1 0.7 1.5-0.9q0.2-0.2 0.3-0.2t0.2 0.2 -0.2 0.5q-0.9 1-1.8 1 -1.4 0-2.2-2 -0.9 2-2.5 3.4t-3.2 1.4q-1.5 0-1.5-2.2 0-1.8 3.3-6.5t5-4.7q0.4 0 0.7 0.2t0.3 0.5q0 0-0.4 0.4t-2.2 2.4 -3.5 4.3 -1.7 3.6q0 0.3 0.2 0.7t0.6 0.4q1.2 0 2.9-1.9 1.4-1.7 1.7-2.8 -0.2-0.6-0.2-1.5zM86.8 42.7q-0.3 0-0.6-0.1 -1.8-0.5-1.8-2 0-2 2.5-4.5t4.4-2.6q0.6 0 1.1 0.4t0.4 0.9q0 1.6-2.4 3t-3.8 1.4q-0.2 0-0.4-0.1 -0.4 0.8-0.4 1.6 0 1.5 1.4 1.5t3.6-1.9q1.7-1.4 2.9-2.9 0.3-0.3 0.4-0.3t0.2 0.2 -0.2 0.5q-1.5 2-3.6 3.5t-3.6 1.5zM92.1 34.6q0-0.3-0.7-0.3t-2 1.1q-1.8 1.5-2.7 3.1 0.2 0.1 0.4 0.1 1.1 0 2.8-1.1t2.2-2.5q0.1-0.1 0.1-0.3zM98.3 33.5q0.8 0 0.8 0.6 0 0.2-0.1 0.3 -2.5 3.5-3 5.3 6.5-6.5 7.9-6.5 0.1 0 0.3 0 0.8 0 0.8 0.7 0 0.1-0.1 0.3t-1.1 1.5q-1.2 1.5-2.1 2.8t-0.9 2.2 0.4 0.9q1.2 0 4.3-3.4 0.1-0.1 0.2-0.3 0.4-0.5 0.5-0.5t0.1 0.3 -0.4 0.7q-3.5 3.9-4.9 3.9 -1.4 0-1.4-1.5t1.1-3.5l1.8-2.9q-1.9 1.4-3.4 3.1t-2.7 3.2 -1.4 1.6q-0.4 0-0.7-0.3t-0.2-0.9 0.4-1.4 0.9-2.1l-1.7 1.8q-0.6 0.6-0.8 0.6t-0.2-0.2 0.2-0.4q1-1 1.8-2 0.7-1 3-3.6 0.3-0.3 0.5-0.3zM113.2 31.1q0.4 0.3 0.4 0.6t-0.3 0.6 -0.8 0.3 -0.8-0.3 -0.3-0.7q0-0.8 1.1-0.8 0.4 0 0.8 0.3zM107.3 42.6q-1.4 0-1.4-1.8 0-1.5 1.7-4.2t2.7-2.7q0.3 0 0.6 0.2t0.4 0.4q-0.1 0.2-0.3 0.4t-0.4 0.5 -0.6 0.8 -0.8 1q-2.1 2.7-2.1 3.7t0.7 1q0.6 0 1.6-0.6 2.4-1.5 3.7-3.2 0.5-0.6 0.7-0.6t0.2 0.2 -0.6 0.9 -1 1.1 -0.5 0.5 -0.5 0.5 -0.6 0.5 -0.6 0.4 -0.6 0.4 -0.6 0.3q-0.6 0.3-1.4 0.3z" fill="#262626"/><path d="M134.1 34.5q-1.7 0-2.8-0.8t-1.1-1.9q0-1.5 1.9-3 0.3-0.3 0.5-0.3t0.2 0.1q0 0.3-0.4 0.4 -1.6 1.3-1.6 2.5 0 0.9 0.8 1.6t2.1 0.6q2.7 0 5.2-2.6 1.3-1.4 1.3-3.2t-1.3-2.7q-1.1-0.8-3-0.8 -2.7 0-5.5 1.4 -3.4 1.7-6.2 5.1t-2.8 6.7q0 2.5 1.7 3.9t4.3 1.4q2.9 0 5.8-1.4 2.2-1.1 3.7-2.9 0.4-0.5 0.7-0.5 0.2 0 0.2 0.3t-0.3 0.6q-1.5 1.6-4.3 3 -3.4 1.8-6.9 1.8t-5.2-2.3q-1.1-1.5-1.1-3.6 0-0.9 0.2-2 0.8-3.6 4-7 2.3-2.4 5.5-3.8t6-1.4q1.5 0 2.6 0.4 3.1 1 3.1 3.8 0 1.8-1 3.1 -2.6 3.2-6.1 3.2zM148.1 31.3q0.8 0 1.4 0.6t0.6 1.6q0 2.2-3.7 5.5 -3.1 2.8-5 3.4 -0.3 0-0.8-0.3t-0.5-0.6q0-0.6 1.3-4.2t1.8-4q0.1-0.1 0.4-0.1t0.5 0.3 0.3 0.6q0 0-1.4 3.2t-1.3 3.8q1.2-0.4 4.3-2.9t3.1-4.6q0-1.2-1.2-1.8 -0.2-0.1-0.2-0.3 0-0.3 0.3-0.3zM151.6 42.7q-0.3 0-0.6-0.1 -1.8-0.5-1.8-2 0-2 2.5-4.5t4.4-2.6q0.6 0 1.1 0.4t0.4 0.9q0 1.6-2.4 3t-3.8 1.4q-0.2 0-0.4-0.1 -0.4 0.8-0.4 1.6 0 1.5 1.4 1.5t3.6-1.9q1.7-1.4 2.9-2.9 0.3-0.3 0.4-0.3t0.2 0.2 -0.2 0.5q-1.5 2-3.6 3.5t-3.6 1.5zM156.9 34.6q0-0.3-0.7-0.3t-2 1.1q-1.8 1.5-2.7 3.1 0.2 0.1 0.4 0.1 1.1 0 2.8-1.1t2.2-2.5q0.1-0.1 0.1-0.3zM165.9 33.3l4-0.1q0.1 0.1 0.1 0.1 0 0.3-3.5 0.7t-3.8 0.5q-0.5 0.5-2 2.8t-1.4 3.5q0 1 1.4 1 0.7 0 1.8-0.4t1.7-0.8q1.6-1 3.4-2.9 0.4-0.4 0.5-0.4 0.1 0 0.1 0.2t-0.4 0.7q-1.5 1.8-3.3 2.9 -2.2 1.3-4.2 1.3 -0.9 0-1.4-0.4t-0.5-1.5 1-3.1 1.5-3q-0.4 0.1-0.7 0.1 -0.8 0-0.8-0.6 0-0.5 0.7-0.7 0.1 0 0.3 0l1.6 0q0.5-0.6 1.1-1.5 0.8-1 1.1-1t0.7 0.2 0.4 0.5 -1.3 1.8q0.7 0 1.9 0z" fill="#d2aa5c"/></svg>